<svg xmlns="http://www.w3.org/2000/svg" viewBox="0 0 200 200" width="200" height="200">
  <title>GABAIA — Símbolo (versão detalhada com satélites)</title>
  <desc>Símbolo GABAIA com 8 satélites e anel decorativo — versão da lockup vertical, sem wordmark.</desc>
  <circle cx="50" cy="40" r="2.2" fill="#A8B5A2" opacity="0.75"/>
  <circle cx="155" cy="28" r="2.6" fill="#A8B5A2" opacity="0.7"/>
  <circle cx="180" cy="92" r="2.2" fill="#A8B5A2" opacity="0.75"/>
  <circle cx="173" cy="158" r="2.4" fill="#A8B5A2" opacity="0.7"/>
  <circle cx="118" cy="186" r="2.2" fill="#A8B5A2" opacity="0.75"/>
  <circle cx="38" cy="170" r="2" fill="#A8B5A2" opacity="0.7"/>
  <circle cx="14" cy="118" r="2.4" fill="#A8B5A2" opacity="0.75"/>
  <circle cx="22" cy="62" r="2" fill="#A8B5A2" opacity="0.7"/>
  <circle cx="100" cy="100" r="86" fill="none" stroke="#C9B7A6" stroke-width="0.6" opacity="0.5"/>
  <g transform="translate(100,100)">
    <path d="M -45.7,-65.6 A 80,80 0 0 1 45.7,-65.6 L 13.7,-19.7 A 24,24 0 0 0 -13.7,-19.7 Z" fill="#D5C4B4"/>
    <g transform="rotate(72)"><path d="M -45.7,-65.6 A 80,80 0 0 1 45.7,-65.6 L 13.7,-19.7 A 24,24 0 0 0 -13.7,-19.7 Z" fill="#E0B5B0"/></g>
    <g transform="rotate(144)"><path d="M -45.7,-65.6 A 80,80 0 0 1 45.7,-65.6 L 13.7,-19.7 A 24,24 0 0 0 -13.7,-19.7 Z" fill="#B5C0AE"/></g>
    <g transform="rotate(216)"><path d="M -45.7,-65.6 A 80,80 0 0 1 45.7,-65.6 L 13.7,-19.7 A 24,24 0 0 0 -13.7,-19.7 Z" fill="#E0B5B0"/></g>
    <g transform="rotate(288)"><path d="M -45.7,-65.6 A 80,80 0 0 1 45.7,-65.6 L 13.7,-19.7 A 24,24 0 0 0 -13.7,-19.7 Z" fill="#B5C0AE"/></g>
    <line x1="0" y1="-19" x2="0" y2="-80" stroke="#EFE7DD" stroke-width="1.2" transform="rotate(36)"/>
    <line x1="0" y1="-19" x2="0" y2="-80" stroke="#EFE7DD" stroke-width="1.2" transform="rotate(108)"/>
    <line x1="0" y1="-19" x2="0" y2="-80" stroke="#EFE7DD" stroke-width="1.2" transform="rotate(180)"/>
    <line x1="0" y1="-19" x2="0" y2="-80" stroke="#EFE7DD" stroke-width="1.2" transform="rotate(252)"/>
    <line x1="0" y1="-19" x2="0" y2="-80" stroke="#EFE7DD" stroke-width="1.2" transform="rotate(324)"/>
    <g transform="rotate(108)"><circle cx="0" cy="-80" r="4" fill="#EFE7DD"/><circle cx="0" cy="-80" r="2.2" fill="#8B7565"/></g>
    <g transform="rotate(252)"><circle cx="0" cy="-80" r="4" fill="#EFE7DD"/><circle cx="0" cy="-80" r="2.2" fill="#8B7565"/></g>
    <circle cx="0" cy="0" r="22" fill="#EFE7DD"/>
    <circle cx="0" cy="0" r="6" fill="#8B7565"/>
  </g>
</svg>
