<svg xmlns="http://www.w3.org/2000/svg" xmlns:xlink="http://www.w3.org/1999/xlink" width="268" zoomAndPan="magnify" viewBox="0 0 200.87999 220.499993" height="294" preserveAspectRatio="xMidYMid meet" version="1.0"><defs><g/></defs><g fill="#6a5547" fill-opacity="1"><g transform="translate(13.599122, 89.247617)"><g><path d="M 25.390625 -26.84375 L 25.390625 -26.078125 C 24.535156 -26.054688 23.882812 -25.929688 23.4375 -25.703125 C 23 -25.472656 22.703125 -25.101562 22.546875 -24.59375 C 22.398438 -24.09375 22.328125 -23.375 22.328125 -22.4375 L 22.328125 0.1875 C 22.171875 0.1875 22.023438 0.1875 21.890625 0.1875 C 21.753906 0.1875 21.609375 0.1875 21.453125 0.1875 L 5.53125 -24.40625 L 5.53125 -4.390625 C 5.53125 -3.484375 5.613281 -2.769531 5.78125 -2.25 C 5.945312 -1.738281 6.273438 -1.375 6.765625 -1.15625 C 7.253906 -0.9375 7.992188 -0.804688 8.984375 -0.765625 L 8.984375 0 C 8.523438 -0.0507812 7.929688 -0.0820312 7.203125 -0.09375 C 6.472656 -0.101562 5.78125 -0.109375 5.125 -0.109375 C 4.488281 -0.109375 3.847656 -0.101562 3.203125 -0.09375 C 2.554688 -0.0820312 2.019531 -0.0507812 1.59375 0 L 1.59375 -0.765625 C 2.445312 -0.804688 3.09375 -0.9375 3.53125 -1.15625 C 3.976562 -1.375 4.273438 -1.738281 4.421875 -2.25 C 4.578125 -2.769531 4.65625 -3.484375 4.65625 -4.390625 L 4.65625 -22.8125 C 4.65625 -23.75 4.578125 -24.4375 4.421875 -24.875 C 4.273438 -25.320312 3.976562 -25.628906 3.53125 -25.796875 C 3.09375 -25.960938 2.445312 -26.054688 1.59375 -26.078125 L 1.59375 -26.84375 C 2.019531 -26.8125 2.554688 -26.78125 3.203125 -26.75 C 3.847656 -26.726562 4.488281 -26.71875 5.125 -26.71875 C 5.675781 -26.71875 6.203125 -26.726562 6.703125 -26.75 C 7.210938 -26.78125 7.671875 -26.8125 8.078125 -26.84375 L 21.453125 -6.21875 L 21.453125 -22.4375 C 21.453125 -23.375 21.367188 -24.09375 21.203125 -24.59375 C 21.046875 -25.101562 20.71875 -25.472656 20.21875 -25.703125 C 19.726562 -25.929688 18.988281 -26.054688 18 -26.078125 L 18 -26.84375 C 18.457031 -26.8125 19.054688 -26.78125 19.796875 -26.75 C 20.546875 -26.726562 21.238281 -26.71875 21.875 -26.71875 C 22.53125 -26.71875 23.179688 -26.726562 23.828125 -26.75 C 24.472656 -26.78125 24.992188 -26.8125 25.390625 -26.84375 Z M 25.390625 -26.84375 "/></g></g></g><g fill="#6a5547" fill-opacity="1"><g transform="translate(39.678598, 89.247617)"><g><path d="M 10.3125 -20.046875 C 12.53125 -20.046875 14.265625 -19.367188 15.515625 -18.015625 C 16.773438 -16.671875 17.40625 -14.570312 17.40625 -11.71875 L 4.015625 -11.71875 L 3.984375 -12.4375 L 13.765625 -12.4375 C 13.804688 -13.675781 13.703125 -14.816406 13.453125 -15.859375 C 13.203125 -16.910156 12.804688 -17.75 12.265625 -18.375 C 11.722656 -19.007812 11.019531 -19.328125 10.15625 -19.328125 C 9 -19.328125 7.96875 -18.742188 7.0625 -17.578125 C 6.164062 -16.421875 5.628906 -14.578125 5.453125 -12.046875 L 5.578125 -11.90625 C 5.523438 -11.519531 5.484375 -11.097656 5.453125 -10.640625 C 5.429688 -10.191406 5.421875 -9.738281 5.421875 -9.28125 C 5.421875 -7.5625 5.695312 -6.082031 6.25 -4.84375 C 6.8125 -3.613281 7.539062 -2.675781 8.4375 -2.03125 C 9.332031 -1.382812 10.257812 -1.0625 11.21875 -1.0625 C 11.976562 -1.0625 12.695312 -1.179688 13.375 -1.421875 C 14.0625 -1.660156 14.691406 -2.054688 15.265625 -2.609375 C 15.847656 -3.171875 16.359375 -3.921875 16.796875 -4.859375 L 17.546875 -4.546875 C 17.273438 -3.710938 16.820312 -2.90625 16.1875 -2.125 C 15.550781 -1.34375 14.753906 -0.703125 13.796875 -0.203125 C 12.835938 0.285156 11.726562 0.53125 10.46875 0.53125 C 8.644531 0.53125 7.082031 0.113281 5.78125 -0.71875 C 4.476562 -1.550781 3.476562 -2.707031 2.78125 -4.1875 C 2.09375 -5.664062 1.75 -7.363281 1.75 -9.28125 C 1.75 -11.507812 2.097656 -13.425781 2.796875 -15.03125 C 3.503906 -16.632812 4.503906 -17.867188 5.796875 -18.734375 C 7.085938 -19.609375 8.59375 -20.046875 10.3125 -20.046875 Z M 10.3125 -20.046875 "/></g></g></g><g fill="#6a5547" fill-opacity="1"><g transform="translate(58.859174, 89.247617)"><g><path d="M 18.3125 -19.9375 L 18.3125 -4.09375 C 18.3125 -2.957031 18.519531 -2.117188 18.9375 -1.578125 C 19.351562 -1.035156 20.101562 -0.765625 21.1875 -0.765625 L 21.1875 0.03125 C 20.40625 -0.0390625 19.625 -0.078125 18.84375 -0.078125 C 18.101562 -0.078125 17.398438 -0.0390625 16.734375 0.03125 C 16.066406 0.113281 15.453125 0.253906 14.890625 0.453125 L 14.890625 -4.015625 C 14.265625 -2.367188 13.375 -1.195312 12.21875 -0.5 C 11.070312 0.1875 9.894531 0.53125 8.6875 0.53125 C 7.800781 0.53125 7.023438 0.398438 6.359375 0.140625 C 5.703125 -0.109375 5.160156 -0.457031 4.734375 -0.90625 C 4.253906 -1.414062 3.925781 -2.070312 3.75 -2.875 C 3.570312 -3.6875 3.484375 -4.6875 3.484375 -5.875 L 3.484375 -15.390625 C 3.484375 -16.523438 3.28125 -17.363281 2.875 -17.90625 C 2.476562 -18.445312 1.722656 -18.71875 0.609375 -18.71875 L 0.609375 -19.515625 C 1.410156 -19.441406 2.191406 -19.40625 2.953125 -19.40625 C 3.691406 -19.40625 4.394531 -19.445312 5.0625 -19.53125 C 5.726562 -19.625 6.34375 -19.757812 6.90625 -19.9375 L 6.90625 -5.046875 C 6.90625 -4.253906 6.953125 -3.53125 7.046875 -2.875 C 7.148438 -2.21875 7.40625 -1.6875 7.8125 -1.28125 C 8.21875 -0.882812 8.875 -0.6875 9.78125 -0.6875 C 10.769531 -0.6875 11.648438 -0.988281 12.421875 -1.59375 C 13.191406 -2.195312 13.796875 -3.015625 14.234375 -4.046875 C 14.671875 -5.085938 14.890625 -6.253906 14.890625 -7.546875 L 14.890625 -15.390625 C 14.890625 -16.523438 14.6875 -17.363281 14.28125 -17.90625 C 13.882812 -18.445312 13.128906 -18.71875 12.015625 -18.71875 L 12.015625 -19.515625 C 12.828125 -19.441406 13.609375 -19.40625 14.359375 -19.40625 C 15.097656 -19.40625 15.800781 -19.445312 16.46875 -19.53125 C 17.132812 -19.625 17.75 -19.757812 18.3125 -19.9375 Z M 18.3125 -19.9375 "/></g></g></g><g fill="#6a5547" fill-opacity="1"><g transform="translate(80.882722, 89.247617)"><g><path d="M 12.890625 -20.046875 C 13.566406 -20.046875 14.164062 -19.90625 14.6875 -19.625 C 15.207031 -19.351562 15.613281 -18.992188 15.90625 -18.546875 C 16.195312 -18.109375 16.34375 -17.613281 16.34375 -17.0625 C 16.34375 -16.425781 16.144531 -15.867188 15.75 -15.390625 C 15.351562 -14.910156 14.828125 -14.671875 14.171875 -14.671875 C 13.640625 -14.671875 13.171875 -14.835938 12.765625 -15.171875 C 12.367188 -15.515625 12.171875 -16.003906 12.171875 -16.640625 C 12.171875 -17.117188 12.300781 -17.53125 12.5625 -17.875 C 12.832031 -18.21875 13.128906 -18.488281 13.453125 -18.6875 C 13.273438 -18.9375 13.007812 -19.0625 12.65625 -19.0625 C 11.875 -19.0625 11.15625 -18.828125 10.5 -18.359375 C 9.84375 -17.898438 9.285156 -17.300781 8.828125 -16.5625 C 8.378906 -15.832031 8.023438 -15.054688 7.765625 -14.234375 C 7.515625 -13.410156 7.390625 -12.644531 7.390625 -11.9375 L 7.390625 -3.90625 C 7.390625 -2.664062 7.75 -1.835938 8.46875 -1.421875 C 9.1875 -1.003906 10.164062 -0.796875 11.40625 -0.796875 L 11.40625 0 C 10.820312 -0.0195312 10 -0.0507812 8.9375 -0.09375 C 7.882812 -0.132812 6.765625 -0.15625 5.578125 -0.15625 C 4.710938 -0.15625 3.859375 -0.132812 3.015625 -0.09375 C 2.171875 -0.0507812 1.53125 -0.0195312 1.09375 0 L 1.09375 -0.796875 C 2.132812 -0.796875 2.875 -0.984375 3.3125 -1.359375 C 3.757812 -1.742188 3.984375 -2.46875 3.984375 -3.53125 L 3.984375 -15.390625 C 3.984375 -16.523438 3.78125 -17.363281 3.375 -17.90625 C 2.96875 -18.445312 2.207031 -18.71875 1.09375 -18.71875 L 1.09375 -19.515625 C 1.90625 -19.441406 2.691406 -19.40625 3.453125 -19.40625 C 4.179688 -19.40625 4.878906 -19.445312 5.546875 -19.53125 C 6.222656 -19.625 6.835938 -19.757812 7.390625 -19.9375 L 7.390625 -15.203125 C 7.671875 -15.929688 8.066406 -16.664062 8.578125 -17.40625 C 9.097656 -18.15625 9.722656 -18.78125 10.453125 -19.28125 C 11.191406 -19.789062 12.003906 -20.046875 12.890625 -20.046875 Z M 12.890625 -20.046875 "/></g></g></g><g fill="#6a5547" fill-opacity="1"><g transform="translate(96.992843, 89.247617)"><g><path d="M 10.390625 -20.046875 C 12.003906 -20.046875 13.453125 -19.691406 14.734375 -18.984375 C 16.023438 -18.273438 17.054688 -17.160156 17.828125 -15.640625 C 18.597656 -14.128906 18.984375 -12.160156 18.984375 -9.734375 C 18.984375 -7.316406 18.597656 -5.351562 17.828125 -3.84375 C 17.054688 -2.34375 16.023438 -1.238281 14.734375 -0.53125 C 13.453125 0.175781 12.003906 0.53125 10.390625 0.53125 C 8.796875 0.53125 7.347656 0.175781 6.046875 -0.53125 C 4.742188 -1.238281 3.707031 -2.34375 2.9375 -3.84375 C 2.164062 -5.351562 1.78125 -7.316406 1.78125 -9.734375 C 1.78125 -12.160156 2.164062 -14.128906 2.9375 -15.640625 C 3.707031 -17.160156 4.742188 -18.273438 6.046875 -18.984375 C 7.347656 -19.691406 8.796875 -20.046875 10.390625 -20.046875 Z M 10.390625 -19.296875 C 8.941406 -19.296875 7.753906 -18.550781 6.828125 -17.0625 C 5.910156 -15.570312 5.453125 -13.128906 5.453125 -9.734375 C 5.453125 -6.347656 5.910156 -3.914062 6.828125 -2.4375 C 7.753906 -0.96875 8.941406 -0.234375 10.390625 -0.234375 C 11.828125 -0.234375 13.003906 -0.96875 13.921875 -2.4375 C 14.847656 -3.914062 15.3125 -6.347656 15.3125 -9.734375 C 15.3125 -13.128906 14.847656 -15.570312 13.921875 -17.0625 C 13.003906 -18.550781 11.828125 -19.296875 10.390625 -19.296875 Z M 10.390625 -19.296875 "/></g></g></g><g fill="#a8b5a2" fill-opacity="1"><g transform="translate(13.239294, 105.241247)"><g><path d="M 3.75 0.09375 C 3.132812 0.09375 2.585938 -0.0546875 2.109375 -0.359375 C 1.628906 -0.671875 1.253906 -1.101562 0.984375 -1.65625 C 0.722656 -2.21875 0.59375 -2.875 0.59375 -3.625 C 0.59375 -4.375 0.722656 -5.023438 0.984375 -5.578125 C 1.253906 -6.140625 1.628906 -6.570312 2.109375 -6.875 C 2.585938 -7.1875 3.132812 -7.34375 3.75 -7.34375 C 4.144531 -7.34375 4.503906 -7.28125 4.828125 -7.15625 C 5.148438 -7.039062 5.4375 -6.875 5.6875 -6.65625 C 5.9375 -6.445312 6.140625 -6.195312 6.296875 -5.90625 C 6.460938 -5.613281 6.578125 -5.300781 6.640625 -4.96875 L 5.953125 -4.96875 C 5.898438 -5.21875 5.8125 -5.445312 5.6875 -5.65625 C 5.5625 -5.875 5.398438 -6.0625 5.203125 -6.21875 C 5.015625 -6.375 4.796875 -6.492188 4.546875 -6.578125 C 4.304688 -6.671875 4.039062 -6.71875 3.75 -6.71875 C 3.289062 -6.71875 2.867188 -6.59375 2.484375 -6.34375 C 2.109375 -6.101562 1.8125 -5.753906 1.59375 -5.296875 C 1.375 -4.835938 1.265625 -4.28125 1.265625 -3.625 C 1.265625 -2.96875 1.375 -2.40625 1.59375 -1.9375 C 1.8125 -1.476562 2.109375 -1.128906 2.484375 -0.890625 C 2.867188 -0.660156 3.289062 -0.546875 3.75 -0.546875 C 4.039062 -0.546875 4.304688 -0.585938 4.546875 -0.671875 C 4.796875 -0.753906 5.015625 -0.875 5.203125 -1.03125 C 5.398438 -1.195312 5.5625 -1.382812 5.6875 -1.59375 C 5.8125 -1.800781 5.898438 -2.03125 5.953125 -2.28125 L 6.640625 -2.28125 C 6.585938 -1.945312 6.476562 -1.632812 6.3125 -1.34375 C 6.15625 -1.0625 5.953125 -0.8125 5.703125 -0.59375 C 5.453125 -0.375 5.160156 -0.203125 4.828125 -0.078125 C 4.503906 0.0351562 4.144531 0.09375 3.75 0.09375 Z M 3.75 0.09375 "/></g></g></g><g fill="#a8b5a2" fill-opacity="1"><g transform="translate(20.441825, 105.241247)"><g><path d="M 0.78125 0 L 0.78125 -5.375 L 1.4375 -5.375 L 1.4375 0 Z M 1.125 -6.40625 C 0.988281 -6.40625 0.875 -6.445312 0.78125 -6.53125 C 0.6875 -6.625 0.640625 -6.738281 0.640625 -6.875 C 0.640625 -7 0.6875 -7.101562 0.78125 -7.1875 C 0.875 -7.28125 0.988281 -7.328125 1.125 -7.328125 C 1.25 -7.328125 1.359375 -7.28125 1.453125 -7.1875 C 1.546875 -7.101562 1.59375 -7 1.59375 -6.875 C 1.59375 -6.738281 1.546875 -6.625 1.453125 -6.53125 C 1.359375 -6.445312 1.25 -6.40625 1.125 -6.40625 Z M 1.125 -6.40625 "/></g></g></g><g fill="#a8b5a2" fill-opacity="1"><g transform="translate(22.672222, 105.241247)"><g><path d="M 2.953125 0.109375 C 2.453125 0.109375 2.015625 -0.00390625 1.640625 -0.234375 C 1.273438 -0.472656 0.992188 -0.800781 0.796875 -1.21875 C 0.597656 -1.632812 0.5 -2.113281 0.5 -2.65625 C 0.5 -3.195312 0.597656 -3.675781 0.796875 -4.09375 C 0.992188 -4.519531 1.269531 -4.851562 1.625 -5.09375 C 1.988281 -5.332031 2.398438 -5.453125 2.859375 -5.453125 C 3.171875 -5.453125 3.46875 -5.394531 3.75 -5.28125 C 4.03125 -5.164062 4.273438 -4.992188 4.484375 -4.765625 C 4.703125 -4.546875 4.875 -4.269531 5 -3.9375 C 5.125 -3.601562 5.1875 -3.210938 5.1875 -2.765625 L 5.1875 -2.5 L 0.921875 -2.5 L 0.921875 -3.0625 L 4.828125 -3.0625 L 4.53125 -2.859375 C 4.53125 -3.242188 4.460938 -3.585938 4.328125 -3.890625 C 4.191406 -4.191406 4 -4.429688 3.75 -4.609375 C 3.507812 -4.785156 3.210938 -4.875 2.859375 -4.875 C 2.523438 -4.875 2.226562 -4.78125 1.96875 -4.59375 C 1.71875 -4.414062 1.519531 -4.175781 1.375 -3.875 C 1.226562 -3.582031 1.15625 -3.253906 1.15625 -2.890625 L 1.15625 -2.578125 C 1.15625 -2.160156 1.226562 -1.789062 1.375 -1.46875 C 1.519531 -1.15625 1.726562 -0.910156 2 -0.734375 C 2.269531 -0.566406 2.585938 -0.484375 2.953125 -0.484375 C 3.210938 -0.484375 3.441406 -0.519531 3.640625 -0.59375 C 3.835938 -0.675781 4.003906 -0.785156 4.140625 -0.921875 C 4.273438 -1.066406 4.375 -1.226562 4.4375 -1.40625 L 5.0625 -1.25 C 4.976562 -1 4.835938 -0.769531 4.640625 -0.5625 C 4.453125 -0.351562 4.210938 -0.1875 3.921875 -0.0625 C 3.640625 0.0507812 3.316406 0.109375 2.953125 0.109375 Z M 2.03125 -6.171875 L 1.375 -6.171875 L 1.375 -6.21875 L 2.5625 -7.53125 L 3.140625 -7.53125 L 4.34375 -6.21875 L 4.34375 -6.171875 L 3.671875 -6.171875 L 2.859375 -7.109375 Z M 2.03125 -6.171875 "/></g></g></g><g fill="#a8b5a2" fill-opacity="1"><g transform="translate(28.335877, 105.241247)"><g><path d="M 1.4375 -3.328125 L 1.4375 0 L 0.78125 0 L 0.78125 -5.375 L 1.421875 -5.375 L 1.421875 -4.125 L 1.296875 -4.125 C 1.453125 -4.582031 1.6875 -4.914062 2 -5.125 C 2.320312 -5.34375 2.6875 -5.453125 3.09375 -5.453125 C 3.46875 -5.453125 3.796875 -5.375 4.078125 -5.21875 C 4.359375 -5.0625 4.578125 -4.835938 4.734375 -4.546875 C 4.890625 -4.253906 4.96875 -3.890625 4.96875 -3.453125 L 4.96875 0 L 4.3125 0 L 4.3125 -3.40625 C 4.3125 -3.851562 4.1875 -4.207031 3.9375 -4.46875 C 3.6875 -4.726562 3.351562 -4.859375 2.9375 -4.859375 C 2.65625 -4.859375 2.398438 -4.796875 2.171875 -4.671875 C 1.941406 -4.554688 1.757812 -4.382812 1.625 -4.15625 C 1.5 -3.925781 1.4375 -3.648438 1.4375 -3.328125 Z M 1.4375 -3.328125 "/></g></g></g><g fill="#a8b5a2" fill-opacity="1"><g transform="translate(34.09693, 105.241247)"><g><path d="M 2.890625 0.109375 C 2.421875 0.109375 2.003906 -0.0078125 1.640625 -0.25 C 1.285156 -0.488281 1.003906 -0.816406 0.796875 -1.234375 C 0.597656 -1.648438 0.5 -2.128906 0.5 -2.671875 C 0.5 -3.210938 0.597656 -3.691406 0.796875 -4.109375 C 1.003906 -4.535156 1.285156 -4.863281 1.640625 -5.09375 C 2.003906 -5.332031 2.421875 -5.453125 2.890625 -5.453125 C 3.171875 -5.453125 3.425781 -5.410156 3.65625 -5.328125 C 3.882812 -5.242188 4.085938 -5.132812 4.265625 -5 C 4.453125 -4.863281 4.601562 -4.707031 4.71875 -4.53125 C 4.84375 -4.351562 4.929688 -4.171875 4.984375 -3.984375 L 4.359375 -3.828125 C 4.328125 -3.941406 4.269531 -4.0625 4.1875 -4.1875 C 4.101562 -4.3125 4 -4.421875 3.875 -4.515625 C 3.757812 -4.617188 3.617188 -4.703125 3.453125 -4.765625 C 3.285156 -4.828125 3.097656 -4.859375 2.890625 -4.859375 C 2.523438 -4.859375 2.210938 -4.757812 1.953125 -4.5625 C 1.703125 -4.375 1.503906 -4.113281 1.359375 -3.78125 C 1.222656 -3.445312 1.15625 -3.078125 1.15625 -2.671875 C 1.15625 -2.265625 1.222656 -1.894531 1.359375 -1.5625 C 1.503906 -1.238281 1.703125 -0.976562 1.953125 -0.78125 C 2.210938 -0.582031 2.523438 -0.484375 2.890625 -0.484375 C 3.097656 -0.484375 3.285156 -0.515625 3.453125 -0.578125 C 3.628906 -0.640625 3.773438 -0.722656 3.890625 -0.828125 C 4.015625 -0.929688 4.117188 -1.046875 4.203125 -1.171875 C 4.285156 -1.296875 4.34375 -1.421875 4.375 -1.546875 L 5 -1.390625 C 4.945312 -1.203125 4.859375 -1.019531 4.734375 -0.84375 C 4.617188 -0.664062 4.46875 -0.503906 4.28125 -0.359375 C 4.101562 -0.210938 3.894531 -0.0976562 3.65625 -0.015625 C 3.425781 0.0664062 3.171875 0.109375 2.890625 0.109375 Z M 2.890625 0.109375 "/></g></g></g><g fill="#a8b5a2" fill-opacity="1"><g transform="translate(39.57553, 105.241247)"><g><path d="M 0.78125 0 L 0.78125 -5.375 L 1.4375 -5.375 L 1.4375 0 Z M 1.125 -6.40625 C 0.988281 -6.40625 0.875 -6.445312 0.78125 -6.53125 C 0.6875 -6.625 0.640625 -6.738281 0.640625 -6.875 C 0.640625 -7 0.6875 -7.101562 0.78125 -7.1875 C 0.875 -7.28125 0.988281 -7.328125 1.125 -7.328125 C 1.25 -7.328125 1.359375 -7.28125 1.453125 -7.1875 C 1.546875 -7.101562 1.59375 -7 1.59375 -6.875 C 1.59375 -6.738281 1.546875 -6.625 1.453125 -6.53125 C 1.359375 -6.445312 1.25 -6.40625 1.125 -6.40625 Z M 1.125 -6.40625 "/></g></g></g><g fill="#a8b5a2" fill-opacity="1"><g transform="translate(41.805927, 105.241247)"><g><path d="M 2.234375 0.109375 C 1.910156 0.109375 1.613281 0.046875 1.34375 -0.078125 C 1.070312 -0.203125 0.851562 -0.382812 0.6875 -0.625 C 0.53125 -0.863281 0.453125 -1.15625 0.453125 -1.5 C 0.453125 -1.769531 0.5 -1.992188 0.59375 -2.171875 C 0.695312 -2.359375 0.84375 -2.507812 1.03125 -2.625 C 1.21875 -2.738281 1.4375 -2.828125 1.6875 -2.890625 C 1.945312 -2.960938 2.234375 -3.019531 2.546875 -3.0625 C 2.847656 -3.101562 3.101562 -3.132812 3.3125 -3.15625 C 3.519531 -3.1875 3.675781 -3.234375 3.78125 -3.296875 C 3.894531 -3.359375 3.953125 -3.457031 3.953125 -3.59375 L 3.953125 -3.703125 C 3.953125 -3.941406 3.898438 -4.144531 3.796875 -4.3125 C 3.691406 -4.488281 3.546875 -4.625 3.359375 -4.71875 C 3.171875 -4.820312 2.941406 -4.875 2.671875 -4.875 C 2.410156 -4.875 2.179688 -4.832031 1.984375 -4.75 C 1.785156 -4.664062 1.625 -4.554688 1.5 -4.421875 C 1.375 -4.285156 1.285156 -4.132812 1.234375 -3.96875 L 0.59375 -4.125 C 0.6875 -4.425781 0.835938 -4.675781 1.046875 -4.875 C 1.253906 -5.070312 1.5 -5.21875 1.78125 -5.3125 C 2.0625 -5.40625 2.351562 -5.453125 2.65625 -5.453125 C 2.882812 -5.453125 3.113281 -5.421875 3.34375 -5.359375 C 3.570312 -5.296875 3.78125 -5.195312 3.96875 -5.0625 C 4.15625 -4.925781 4.304688 -4.742188 4.421875 -4.515625 C 4.535156 -4.285156 4.59375 -4.003906 4.59375 -3.671875 L 4.59375 0 L 3.953125 0 L 3.953125 -0.859375 L 3.90625 -0.859375 C 3.832031 -0.691406 3.722656 -0.535156 3.578125 -0.390625 C 3.429688 -0.242188 3.242188 -0.125 3.015625 -0.03125 C 2.796875 0.0625 2.535156 0.109375 2.234375 0.109375 Z M 2.328125 -0.46875 C 2.660156 -0.46875 2.945312 -0.539062 3.1875 -0.6875 C 3.4375 -0.832031 3.625 -1.023438 3.75 -1.265625 C 3.882812 -1.503906 3.953125 -1.769531 3.953125 -2.0625 L 3.953125 -2.828125 C 3.898438 -2.785156 3.820312 -2.742188 3.71875 -2.703125 C 3.613281 -2.671875 3.492188 -2.640625 3.359375 -2.609375 C 3.222656 -2.585938 3.082031 -2.566406 2.9375 -2.546875 C 2.789062 -2.523438 2.65625 -2.507812 2.53125 -2.5 C 2.238281 -2.457031 1.984375 -2.394531 1.765625 -2.3125 C 1.554688 -2.238281 1.394531 -2.132812 1.28125 -2 C 1.164062 -1.863281 1.109375 -1.6875 1.109375 -1.46875 C 1.109375 -1.257812 1.160156 -1.078125 1.265625 -0.921875 C 1.367188 -0.773438 1.515625 -0.660156 1.703125 -0.578125 C 1.890625 -0.503906 2.097656 -0.46875 2.328125 -0.46875 Z M 2.328125 -0.46875 "/></g></g></g><g fill="#d7a7a1" fill-opacity="1"><g transform="translate(54.131577, 105.241247)"><g><path d="M 0.234375 0 L 2.90625 -7.25 L 3.703125 -7.25 L 6.390625 0 L 5.671875 0 L 3.9375 -4.75 C 3.84375 -5.019531 3.738281 -5.328125 3.625 -5.671875 C 3.507812 -6.023438 3.375 -6.445312 3.21875 -6.9375 L 3.375 -6.9375 C 3.226562 -6.4375 3.09375 -6.007812 2.96875 -5.65625 C 2.851562 -5.3125 2.753906 -5.007812 2.671875 -4.75 L 0.953125 0 Z M 1.484375 -2.15625 L 1.484375 -2.765625 L 5.140625 -2.765625 L 5.140625 -2.15625 Z M 1.484375 -2.15625 "/></g></g></g><g fill="#d7a7a1" fill-opacity="1"><g transform="translate(60.681536, 105.241247)"><g><path d="M 2.890625 0.109375 C 2.421875 0.109375 2.003906 -0.0078125 1.640625 -0.25 C 1.285156 -0.488281 1.003906 -0.816406 0.796875 -1.234375 C 0.597656 -1.648438 0.5 -2.128906 0.5 -2.671875 C 0.5 -3.210938 0.597656 -3.691406 0.796875 -4.109375 C 1.003906 -4.535156 1.285156 -4.863281 1.640625 -5.09375 C 2.003906 -5.332031 2.421875 -5.453125 2.890625 -5.453125 C 3.171875 -5.453125 3.425781 -5.410156 3.65625 -5.328125 C 3.882812 -5.242188 4.085938 -5.132812 4.265625 -5 C 4.453125 -4.863281 4.601562 -4.707031 4.71875 -4.53125 C 4.84375 -4.351562 4.929688 -4.171875 4.984375 -3.984375 L 4.359375 -3.828125 C 4.328125 -3.941406 4.269531 -4.0625 4.1875 -4.1875 C 4.101562 -4.3125 4 -4.421875 3.875 -4.515625 C 3.757812 -4.617188 3.617188 -4.703125 3.453125 -4.765625 C 3.285156 -4.828125 3.097656 -4.859375 2.890625 -4.859375 C 2.523438 -4.859375 2.210938 -4.757812 1.953125 -4.5625 C 1.703125 -4.375 1.503906 -4.113281 1.359375 -3.78125 C 1.222656 -3.445312 1.15625 -3.078125 1.15625 -2.671875 C 1.15625 -2.265625 1.222656 -1.894531 1.359375 -1.5625 C 1.503906 -1.238281 1.703125 -0.976562 1.953125 -0.78125 C 2.210938 -0.582031 2.523438 -0.484375 2.890625 -0.484375 C 3.097656 -0.484375 3.285156 -0.515625 3.453125 -0.578125 C 3.628906 -0.640625 3.773438 -0.722656 3.890625 -0.828125 C 4.015625 -0.929688 4.117188 -1.046875 4.203125 -1.171875 C 4.285156 -1.296875 4.34375 -1.421875 4.375 -1.546875 L 5 -1.390625 C 4.945312 -1.203125 4.859375 -1.019531 4.734375 -0.84375 C 4.617188 -0.664062 4.46875 -0.503906 4.28125 -0.359375 C 4.101562 -0.210938 3.894531 -0.0976562 3.65625 -0.015625 C 3.425781 0.0664062 3.171875 0.109375 2.890625 0.109375 Z M 2.890625 0.109375 "/></g></g></g><g fill="#d7a7a1" fill-opacity="1"><g transform="translate(66.160136, 105.241247)"><g><path d="M 2.890625 0.109375 C 2.421875 0.109375 2.003906 -0.00390625 1.640625 -0.234375 C 1.285156 -0.472656 1.003906 -0.800781 0.796875 -1.21875 C 0.597656 -1.632812 0.5 -2.113281 0.5 -2.65625 C 0.5 -3.207031 0.597656 -3.691406 0.796875 -4.109375 C 1.003906 -4.535156 1.285156 -4.863281 1.640625 -5.09375 C 2.003906 -5.332031 2.421875 -5.453125 2.890625 -5.453125 C 3.367188 -5.453125 3.785156 -5.332031 4.140625 -5.09375 C 4.492188 -4.863281 4.769531 -4.535156 4.96875 -4.109375 C 5.175781 -3.691406 5.28125 -3.207031 5.28125 -2.65625 C 5.28125 -2.113281 5.175781 -1.632812 4.96875 -1.21875 C 4.769531 -0.800781 4.492188 -0.472656 4.140625 -0.234375 C 3.785156 -0.00390625 3.367188 0.109375 2.890625 0.109375 Z M 2.890625 -0.484375 C 3.265625 -0.484375 3.578125 -0.578125 3.828125 -0.765625 C 4.085938 -0.960938 4.285156 -1.226562 4.421875 -1.5625 C 4.554688 -1.894531 4.625 -2.257812 4.625 -2.65625 C 4.625 -3.070312 4.554688 -3.445312 4.421875 -3.78125 C 4.285156 -4.113281 4.085938 -4.375 3.828125 -4.5625 C 3.566406 -4.757812 3.253906 -4.859375 2.890625 -4.859375 C 2.523438 -4.859375 2.210938 -4.757812 1.953125 -4.5625 C 1.703125 -4.363281 1.503906 -4.097656 1.359375 -3.765625 C 1.222656 -3.441406 1.15625 -3.070312 1.15625 -2.65625 C 1.15625 -2.25 1.222656 -1.878906 1.359375 -1.546875 C 1.503906 -1.222656 1.703125 -0.960938 1.953125 -0.765625 C 2.210938 -0.578125 2.523438 -0.484375 2.890625 -0.484375 Z M 2.890625 -0.484375 "/></g></g></g><g fill="#d7a7a1" fill-opacity="1"><g transform="translate(71.950408, 105.241247)"><g><path d="M 1.4375 -7.25 L 1.4375 0 L 0.78125 0 L 0.78125 -7.25 Z M 1.4375 -7.25 "/></g></g></g><g fill="#d7a7a1" fill-opacity="1"><g transform="translate(74.180805, 105.241247)"><g><path d="M 1.4375 -3.328125 L 1.4375 0 L 0.78125 0 L 0.78125 -7.25 L 1.4375 -7.25 L 1.4375 -4.125 L 1.296875 -4.125 C 1.453125 -4.582031 1.6875 -4.914062 2 -5.125 C 2.320312 -5.34375 2.6875 -5.453125 3.09375 -5.453125 C 3.46875 -5.453125 3.796875 -5.375 4.078125 -5.21875 C 4.359375 -5.0625 4.578125 -4.835938 4.734375 -4.546875 C 4.890625 -4.253906 4.96875 -3.890625 4.96875 -3.453125 L 4.96875 0 L 4.3125 0 L 4.3125 -3.40625 C 4.3125 -3.851562 4.1875 -4.207031 3.9375 -4.46875 C 3.6875 -4.726562 3.351562 -4.859375 2.9375 -4.859375 C 2.65625 -4.859375 2.398438 -4.796875 2.171875 -4.671875 C 1.941406 -4.554688 1.757812 -4.382812 1.625 -4.15625 C 1.5 -3.925781 1.4375 -3.648438 1.4375 -3.328125 Z M 1.4375 -3.328125 "/></g></g></g><g fill="#d7a7a1" fill-opacity="1"><g transform="translate(79.941857, 105.241247)"><g><path d="M 0.78125 0 L 0.78125 -5.375 L 1.4375 -5.375 L 1.4375 0 Z M 1.125 -6.40625 C 0.988281 -6.40625 0.875 -6.445312 0.78125 -6.53125 C 0.6875 -6.625 0.640625 -6.738281 0.640625 -6.875 C 0.640625 -7 0.6875 -7.101562 0.78125 -7.1875 C 0.875 -7.28125 0.988281 -7.328125 1.125 -7.328125 C 1.25 -7.328125 1.359375 -7.28125 1.453125 -7.1875 C 1.546875 -7.101562 1.59375 -7 1.59375 -6.875 C 1.59375 -6.738281 1.546875 -6.625 1.453125 -6.53125 C 1.359375 -6.445312 1.25 -6.40625 1.125 -6.40625 Z M 1.125 -6.40625 "/></g></g></g><g fill="#d7a7a1" fill-opacity="1"><g transform="translate(82.172254, 105.241247)"><g><path d="M 0.78125 0 L 0.78125 -5.375 L 1.421875 -5.375 L 1.421875 -4.171875 L 1.34375 -4.171875 C 1.425781 -4.460938 1.550781 -4.703125 1.71875 -4.890625 C 1.882812 -5.085938 2.078125 -5.234375 2.296875 -5.328125 C 2.515625 -5.421875 2.742188 -5.46875 2.984375 -5.46875 C 3.378906 -5.46875 3.707031 -5.34375 3.96875 -5.09375 C 4.238281 -4.851562 4.40625 -4.535156 4.46875 -4.140625 L 4.359375 -4.140625 C 4.421875 -4.410156 4.535156 -4.644531 4.703125 -4.84375 C 4.867188 -5.039062 5.070312 -5.191406 5.3125 -5.296875 C 5.5625 -5.410156 5.832031 -5.46875 6.125 -5.46875 C 6.4375 -5.46875 6.722656 -5.394531 6.984375 -5.25 C 7.242188 -5.113281 7.445312 -4.90625 7.59375 -4.625 C 7.738281 -4.34375 7.8125 -4 7.8125 -3.59375 L 7.8125 0 L 7.15625 0 L 7.15625 -3.578125 C 7.15625 -4.015625 7.035156 -4.335938 6.796875 -4.546875 C 6.566406 -4.753906 6.285156 -4.859375 5.953125 -4.859375 C 5.691406 -4.859375 5.457031 -4.800781 5.25 -4.6875 C 5.050781 -4.582031 4.894531 -4.425781 4.78125 -4.21875 C 4.675781 -4.019531 4.625 -3.785156 4.625 -3.515625 L 4.625 0 L 3.96875 0 L 3.96875 -3.640625 C 3.96875 -4.015625 3.859375 -4.3125 3.640625 -4.53125 C 3.421875 -4.75 3.140625 -4.859375 2.796875 -4.859375 C 2.546875 -4.859375 2.316406 -4.800781 2.109375 -4.6875 C 1.910156 -4.582031 1.75 -4.421875 1.625 -4.203125 C 1.5 -3.992188 1.4375 -3.738281 1.4375 -3.4375 L 1.4375 0 Z M 0.78125 0 "/></g></g></g><g fill="#d7a7a1" fill-opacity="1"><g transform="translate(90.777306, 105.241247)"><g><path d="M 2.953125 0.109375 C 2.453125 0.109375 2.015625 -0.00390625 1.640625 -0.234375 C 1.273438 -0.472656 0.992188 -0.800781 0.796875 -1.21875 C 0.597656 -1.632812 0.5 -2.113281 0.5 -2.65625 C 0.5 -3.195312 0.597656 -3.675781 0.796875 -4.09375 C 0.992188 -4.519531 1.269531 -4.851562 1.625 -5.09375 C 1.988281 -5.332031 2.398438 -5.453125 2.859375 -5.453125 C 3.171875 -5.453125 3.46875 -5.394531 3.75 -5.28125 C 4.03125 -5.164062 4.273438 -4.992188 4.484375 -4.765625 C 4.703125 -4.546875 4.875 -4.269531 5 -3.9375 C 5.125 -3.601562 5.1875 -3.210938 5.1875 -2.765625 L 5.1875 -2.5 L 0.921875 -2.5 L 0.921875 -3.0625 L 4.828125 -3.0625 L 4.53125 -2.859375 C 4.53125 -3.242188 4.460938 -3.585938 4.328125 -3.890625 C 4.191406 -4.191406 4 -4.429688 3.75 -4.609375 C 3.507812 -4.785156 3.210938 -4.875 2.859375 -4.875 C 2.523438 -4.875 2.226562 -4.78125 1.96875 -4.59375 C 1.71875 -4.414062 1.519531 -4.175781 1.375 -3.875 C 1.226562 -3.582031 1.15625 -3.253906 1.15625 -2.890625 L 1.15625 -2.578125 C 1.15625 -2.160156 1.226562 -1.789062 1.375 -1.46875 C 1.519531 -1.15625 1.726562 -0.910156 2 -0.734375 C 2.269531 -0.566406 2.585938 -0.484375 2.953125 -0.484375 C 3.210938 -0.484375 3.441406 -0.519531 3.640625 -0.59375 C 3.835938 -0.675781 4.003906 -0.785156 4.140625 -0.921875 C 4.273438 -1.066406 4.375 -1.226562 4.4375 -1.40625 L 5.0625 -1.25 C 4.976562 -1 4.835938 -0.769531 4.640625 -0.5625 C 4.453125 -0.351562 4.210938 -0.1875 3.921875 -0.0625 C 3.640625 0.0507812 3.316406 0.109375 2.953125 0.109375 Z M 2.953125 0.109375 "/></g></g></g><g fill="#d7a7a1" fill-opacity="1"><g transform="translate(96.440961, 105.241247)"><g><path d="M 1.4375 -3.328125 L 1.4375 0 L 0.78125 0 L 0.78125 -5.375 L 1.421875 -5.375 L 1.421875 -4.125 L 1.296875 -4.125 C 1.453125 -4.582031 1.6875 -4.914062 2 -5.125 C 2.320312 -5.34375 2.6875 -5.453125 3.09375 -5.453125 C 3.46875 -5.453125 3.796875 -5.375 4.078125 -5.21875 C 4.359375 -5.0625 4.578125 -4.835938 4.734375 -4.546875 C 4.890625 -4.253906 4.96875 -3.890625 4.96875 -3.453125 L 4.96875 0 L 4.3125 0 L 4.3125 -3.40625 C 4.3125 -3.851562 4.1875 -4.207031 3.9375 -4.46875 C 3.6875 -4.726562 3.351562 -4.859375 2.9375 -4.859375 C 2.65625 -4.859375 2.398438 -4.796875 2.171875 -4.671875 C 1.941406 -4.554688 1.757812 -4.382812 1.625 -4.15625 C 1.5 -3.925781 1.4375 -3.648438 1.4375 -3.328125 Z M 1.4375 -3.328125 "/></g></g></g><g fill="#d7a7a1" fill-opacity="1"><g transform="translate(102.202014, 105.241247)"><g><path d="M 2.65625 -5.375 L 2.65625 -4.796875 L 0.078125 -4.796875 L 0.078125 -5.375 Z M 0.90625 -6.6875 L 1.546875 -6.6875 L 1.546875 -1.25 C 1.546875 -1 1.601562 -0.8125 1.71875 -0.6875 C 1.832031 -0.570312 2.015625 -0.523438 2.265625 -0.546875 C 2.316406 -0.546875 2.375 -0.546875 2.4375 -0.546875 C 2.507812 -0.554688 2.578125 -0.566406 2.640625 -0.578125 L 2.734375 -0.015625 C 2.671875 0.00390625 2.59375 0.015625 2.5 0.015625 C 2.414062 0.0234375 2.332031 0.0351562 2.25 0.046875 C 1.820312 0.0664062 1.488281 -0.03125 1.25 -0.25 C 1.019531 -0.476562 0.90625 -0.796875 0.90625 -1.203125 Z M 0.90625 -6.6875 "/></g></g></g><g fill="#d7a7a1" fill-opacity="1"><g transform="translate(105.060606, 105.241247)"><g><path d="M 2.890625 0.109375 C 2.421875 0.109375 2.003906 -0.00390625 1.640625 -0.234375 C 1.285156 -0.472656 1.003906 -0.800781 0.796875 -1.21875 C 0.597656 -1.632812 0.5 -2.113281 0.5 -2.65625 C 0.5 -3.207031 0.597656 -3.691406 0.796875 -4.109375 C 1.003906 -4.535156 1.285156 -4.863281 1.640625 -5.09375 C 2.003906 -5.332031 2.421875 -5.453125 2.890625 -5.453125 C 3.367188 -5.453125 3.785156 -5.332031 4.140625 -5.09375 C 4.492188 -4.863281 4.769531 -4.535156 4.96875 -4.109375 C 5.175781 -3.691406 5.28125 -3.207031 5.28125 -2.65625 C 5.28125 -2.113281 5.175781 -1.632812 4.96875 -1.21875 C 4.769531 -0.800781 4.492188 -0.472656 4.140625 -0.234375 C 3.785156 -0.00390625 3.367188 0.109375 2.890625 0.109375 Z M 2.890625 -0.484375 C 3.265625 -0.484375 3.578125 -0.578125 3.828125 -0.765625 C 4.085938 -0.960938 4.285156 -1.226562 4.421875 -1.5625 C 4.554688 -1.894531 4.625 -2.257812 4.625 -2.65625 C 4.625 -3.070312 4.554688 -3.445312 4.421875 -3.78125 C 4.285156 -4.113281 4.085938 -4.375 3.828125 -4.5625 C 3.566406 -4.757812 3.253906 -4.859375 2.890625 -4.859375 C 2.523438 -4.859375 2.210938 -4.757812 1.953125 -4.5625 C 1.703125 -4.363281 1.503906 -4.097656 1.359375 -3.765625 C 1.222656 -3.441406 1.15625 -3.070312 1.15625 -2.65625 C 1.15625 -2.25 1.222656 -1.878906 1.359375 -1.546875 C 1.503906 -1.222656 1.703125 -0.960938 1.953125 -0.765625 C 2.210938 -0.578125 2.523438 -0.484375 2.890625 -0.484375 Z M 2.890625 -0.484375 "/></g></g></g><g fill="#c9b7a6" fill-opacity="1"><g transform="translate(117.788645, 104.662671)"><g><path d="M 0.46875 -6.640625 L 0.46875 -7.25 L 5.796875 -7.25 L 5.796875 -6.640625 L 3.484375 -6.640625 L 3.484375 0 L 2.796875 0 L 2.796875 -6.640625 Z M 0.46875 -6.640625 "/></g></g></g><g fill="#c9b7a6" fill-opacity="1"><g transform="translate(123.437605, 104.662671)"><g><path d="M 0.78125 0 L 0.78125 -5.375 L 1.421875 -5.375 L 1.421875 -4.53125 L 1.453125 -4.53125 C 1.566406 -4.800781 1.753906 -5.019531 2.015625 -5.1875 C 2.273438 -5.363281 2.578125 -5.453125 2.921875 -5.453125 C 2.972656 -5.453125 3.023438 -5.445312 3.078125 -5.4375 C 3.140625 -5.4375 3.191406 -5.4375 3.234375 -5.4375 L 3.234375 -4.78125 C 3.210938 -4.789062 3.164062 -4.796875 3.09375 -4.796875 C 3.019531 -4.804688 2.941406 -4.8125 2.859375 -4.8125 C 2.585938 -4.8125 2.34375 -4.753906 2.125 -4.640625 C 1.914062 -4.523438 1.75 -4.363281 1.625 -4.15625 C 1.5 -3.945312 1.4375 -3.703125 1.4375 -3.421875 L 1.4375 0 Z M 0.78125 0 "/></g></g></g><g fill="#c9b7a6" fill-opacity="1"><g transform="translate(126.870852, 104.662671)"><g><path d="M 2.234375 0.109375 C 1.910156 0.109375 1.613281 0.046875 1.34375 -0.078125 C 1.070312 -0.203125 0.851562 -0.382812 0.6875 -0.625 C 0.53125 -0.863281 0.453125 -1.15625 0.453125 -1.5 C 0.453125 -1.769531 0.5 -1.992188 0.59375 -2.171875 C 0.695312 -2.359375 0.84375 -2.507812 1.03125 -2.625 C 1.21875 -2.738281 1.4375 -2.828125 1.6875 -2.890625 C 1.945312 -2.960938 2.234375 -3.019531 2.546875 -3.0625 C 2.847656 -3.101562 3.101562 -3.132812 3.3125 -3.15625 C 3.519531 -3.1875 3.675781 -3.234375 3.78125 -3.296875 C 3.894531 -3.359375 3.953125 -3.457031 3.953125 -3.59375 L 3.953125 -3.703125 C 3.953125 -3.941406 3.898438 -4.144531 3.796875 -4.3125 C 3.691406 -4.488281 3.546875 -4.625 3.359375 -4.71875 C 3.171875 -4.820312 2.941406 -4.875 2.671875 -4.875 C 2.410156 -4.875 2.179688 -4.832031 1.984375 -4.75 C 1.785156 -4.664062 1.625 -4.554688 1.5 -4.421875 C 1.375 -4.285156 1.285156 -4.132812 1.234375 -3.96875 L 0.59375 -4.125 C 0.6875 -4.425781 0.835938 -4.675781 1.046875 -4.875 C 1.253906 -5.070312 1.5 -5.21875 1.78125 -5.3125 C 2.0625 -5.40625 2.351562 -5.453125 2.65625 -5.453125 C 2.882812 -5.453125 3.113281 -5.421875 3.34375 -5.359375 C 3.570312 -5.296875 3.78125 -5.195312 3.96875 -5.0625 C 4.15625 -4.925781 4.304688 -4.742188 4.421875 -4.515625 C 4.535156 -4.285156 4.59375 -4.003906 4.59375 -3.671875 L 4.59375 0 L 3.953125 0 L 3.953125 -0.859375 L 3.90625 -0.859375 C 3.832031 -0.691406 3.722656 -0.535156 3.578125 -0.390625 C 3.429688 -0.242188 3.242188 -0.125 3.015625 -0.03125 C 2.796875 0.0625 2.535156 0.109375 2.234375 0.109375 Z M 2.328125 -0.46875 C 2.660156 -0.46875 2.945312 -0.539062 3.1875 -0.6875 C 3.4375 -0.832031 3.625 -1.023438 3.75 -1.265625 C 3.882812 -1.503906 3.953125 -1.769531 3.953125 -2.0625 L 3.953125 -2.828125 C 3.898438 -2.785156 3.820312 -2.742188 3.71875 -2.703125 C 3.613281 -2.671875 3.492188 -2.640625 3.359375 -2.609375 C 3.222656 -2.585938 3.082031 -2.566406 2.9375 -2.546875 C 2.789062 -2.523438 2.65625 -2.507812 2.53125 -2.5 C 2.238281 -2.457031 1.984375 -2.394531 1.765625 -2.3125 C 1.554688 -2.238281 1.394531 -2.132812 1.28125 -2 C 1.164062 -1.863281 1.109375 -1.6875 1.109375 -1.46875 C 1.109375 -1.257812 1.160156 -1.078125 1.265625 -0.921875 C 1.367188 -0.773438 1.515625 -0.660156 1.703125 -0.578125 C 1.890625 -0.503906 2.097656 -0.46875 2.328125 -0.46875 Z M 2.328125 -0.46875 "/></g></g></g><g fill="#c9b7a6" fill-opacity="1"><g transform="translate(132.261795, 104.662671)"><g><path d="M 1.4375 -3.328125 L 1.4375 0 L 0.78125 0 L 0.78125 -5.375 L 1.421875 -5.375 L 1.421875 -4.125 L 1.296875 -4.125 C 1.453125 -4.582031 1.6875 -4.914062 2 -5.125 C 2.320312 -5.34375 2.6875 -5.453125 3.09375 -5.453125 C 3.46875 -5.453125 3.796875 -5.375 4.078125 -5.21875 C 4.359375 -5.0625 4.578125 -4.835938 4.734375 -4.546875 C 4.890625 -4.253906 4.96875 -3.890625 4.96875 -3.453125 L 4.96875 0 L 4.3125 0 L 4.3125 -3.40625 C 4.3125 -3.851562 4.1875 -4.207031 3.9375 -4.46875 C 3.6875 -4.726562 3.351562 -4.859375 2.9375 -4.859375 C 2.65625 -4.859375 2.398438 -4.796875 2.171875 -4.671875 C 1.941406 -4.554688 1.757812 -4.382812 1.625 -4.15625 C 1.5 -3.925781 1.4375 -3.648438 1.4375 -3.328125 Z M 1.4375 -3.328125 "/></g></g></g><g fill="#c9b7a6" fill-opacity="1"><g transform="translate(138.022848, 104.662671)"><g><path d="M 2.515625 0.109375 C 2.148438 0.109375 1.828125 0.0546875 1.546875 -0.046875 C 1.273438 -0.160156 1.050781 -0.328125 0.875 -0.546875 C 0.695312 -0.765625 0.582031 -1.03125 0.53125 -1.34375 L 1.15625 -1.46875 C 1.21875 -1.132812 1.363281 -0.882812 1.59375 -0.71875 C 1.832031 -0.550781 2.132812 -0.46875 2.5 -0.46875 C 2.914062 -0.46875 3.242188 -0.554688 3.484375 -0.734375 C 3.734375 -0.921875 3.859375 -1.15625 3.859375 -1.4375 C 3.859375 -1.65625 3.78125 -1.832031 3.625 -1.96875 C 3.476562 -2.113281 3.257812 -2.21875 2.96875 -2.28125 L 2.09375 -2.5 C 1.625 -2.613281 1.269531 -2.789062 1.03125 -3.03125 C 0.800781 -3.269531 0.6875 -3.570312 0.6875 -3.9375 C 0.6875 -4.226562 0.765625 -4.488281 0.921875 -4.71875 C 1.085938 -4.945312 1.3125 -5.125 1.59375 -5.25 C 1.882812 -5.382812 2.210938 -5.453125 2.578125 -5.453125 C 2.921875 -5.453125 3.21875 -5.394531 3.46875 -5.28125 C 3.726562 -5.175781 3.9375 -5.019531 4.09375 -4.8125 C 4.257812 -4.613281 4.375 -4.375 4.4375 -4.09375 L 3.828125 -3.96875 C 3.753906 -4.238281 3.617188 -4.457031 3.421875 -4.625 C 3.222656 -4.800781 2.941406 -4.890625 2.578125 -4.890625 C 2.222656 -4.890625 1.925781 -4.800781 1.6875 -4.625 C 1.457031 -4.445312 1.34375 -4.222656 1.34375 -3.953125 C 1.34375 -3.722656 1.421875 -3.535156 1.578125 -3.390625 C 1.742188 -3.253906 1.988281 -3.148438 2.3125 -3.078125 L 3.15625 -2.875 C 3.613281 -2.757812 3.957031 -2.582031 4.1875 -2.34375 C 4.414062 -2.113281 4.53125 -1.820312 4.53125 -1.46875 C 4.53125 -1.15625 4.441406 -0.878906 4.265625 -0.640625 C 4.097656 -0.398438 3.863281 -0.210938 3.5625 -0.078125 C 3.257812 0.046875 2.910156 0.109375 2.515625 0.109375 Z M 2.515625 0.109375 "/></g></g></g><g fill="#c9b7a6" fill-opacity="1"><g transform="translate(143.058285, 104.662671)"><g><path d="M 3 -5.375 L 3 -4.796875 L 0.078125 -4.796875 L 0.078125 -5.375 Z M 1.109375 0 L 1.109375 -6.203125 C 1.109375 -6.484375 1.171875 -6.71875 1.296875 -6.90625 C 1.421875 -7.101562 1.585938 -7.253906 1.796875 -7.359375 C 2.003906 -7.460938 2.234375 -7.515625 2.484375 -7.515625 C 2.640625 -7.515625 2.773438 -7.503906 2.890625 -7.484375 C 3.003906 -7.460938 3.085938 -7.441406 3.140625 -7.421875 L 3 -6.84375 C 2.957031 -6.863281 2.894531 -6.878906 2.8125 -6.890625 C 2.738281 -6.898438 2.648438 -6.90625 2.546875 -6.90625 C 2.285156 -6.90625 2.085938 -6.832031 1.953125 -6.6875 C 1.816406 -6.550781 1.75 -6.347656 1.75 -6.078125 L 1.75 0 Z M 1.109375 0 "/></g></g></g><g fill="#c9b7a6" fill-opacity="1"><g transform="translate(146.150619, 104.662671)"><g><path d="M 2.890625 0.109375 C 2.421875 0.109375 2.003906 -0.00390625 1.640625 -0.234375 C 1.285156 -0.472656 1.003906 -0.800781 0.796875 -1.21875 C 0.597656 -1.632812 0.5 -2.113281 0.5 -2.65625 C 0.5 -3.207031 0.597656 -3.691406 0.796875 -4.109375 C 1.003906 -4.535156 1.285156 -4.863281 1.640625 -5.09375 C 2.003906 -5.332031 2.421875 -5.453125 2.890625 -5.453125 C 3.367188 -5.453125 3.785156 -5.332031 4.140625 -5.09375 C 4.492188 -4.863281 4.769531 -4.535156 4.96875 -4.109375 C 5.175781 -3.691406 5.28125 -3.207031 5.28125 -2.65625 C 5.28125 -2.113281 5.175781 -1.632812 4.96875 -1.21875 C 4.769531 -0.800781 4.492188 -0.472656 4.140625 -0.234375 C 3.785156 -0.00390625 3.367188 0.109375 2.890625 0.109375 Z M 2.890625 -0.484375 C 3.265625 -0.484375 3.578125 -0.578125 3.828125 -0.765625 C 4.085938 -0.960938 4.285156 -1.226562 4.421875 -1.5625 C 4.554688 -1.894531 4.625 -2.257812 4.625 -2.65625 C 4.625 -3.070312 4.554688 -3.445312 4.421875 -3.78125 C 4.285156 -4.113281 4.085938 -4.375 3.828125 -4.5625 C 3.566406 -4.757812 3.253906 -4.859375 2.890625 -4.859375 C 2.523438 -4.859375 2.210938 -4.757812 1.953125 -4.5625 C 1.703125 -4.363281 1.503906 -4.097656 1.359375 -3.765625 C 1.222656 -3.441406 1.15625 -3.070312 1.15625 -2.65625 C 1.15625 -2.25 1.222656 -1.878906 1.359375 -1.546875 C 1.503906 -1.222656 1.703125 -0.960938 1.953125 -0.765625 C 2.210938 -0.578125 2.523438 -0.484375 2.890625 -0.484375 Z M 2.890625 -0.484375 "/></g></g></g><g fill="#c9b7a6" fill-opacity="1"><g transform="translate(151.940891, 104.662671)"><g><path d="M 0.78125 0 L 0.78125 -5.375 L 1.421875 -5.375 L 1.421875 -4.53125 L 1.453125 -4.53125 C 1.566406 -4.800781 1.753906 -5.019531 2.015625 -5.1875 C 2.273438 -5.363281 2.578125 -5.453125 2.921875 -5.453125 C 2.972656 -5.453125 3.023438 -5.445312 3.078125 -5.4375 C 3.140625 -5.4375 3.191406 -5.4375 3.234375 -5.4375 L 3.234375 -4.78125 C 3.210938 -4.789062 3.164062 -4.796875 3.09375 -4.796875 C 3.019531 -4.804688 2.941406 -4.8125 2.859375 -4.8125 C 2.585938 -4.8125 2.34375 -4.753906 2.125 -4.640625 C 1.914062 -4.523438 1.75 -4.363281 1.625 -4.15625 C 1.5 -3.945312 1.4375 -3.703125 1.4375 -3.421875 L 1.4375 0 Z M 0.78125 0 "/></g></g></g><g fill="#c9b7a6" fill-opacity="1"><g transform="translate(155.481297, 104.662671)"><g><path d="M 0.78125 0 L 0.78125 -5.375 L 1.421875 -5.375 L 1.421875 -4.171875 L 1.34375 -4.171875 C 1.425781 -4.460938 1.550781 -4.703125 1.71875 -4.890625 C 1.882812 -5.085938 2.078125 -5.234375 2.296875 -5.328125 C 2.515625 -5.421875 2.742188 -5.46875 2.984375 -5.46875 C 3.378906 -5.46875 3.707031 -5.34375 3.96875 -5.09375 C 4.238281 -4.851562 4.40625 -4.535156 4.46875 -4.140625 L 4.359375 -4.140625 C 4.421875 -4.410156 4.535156 -4.644531 4.703125 -4.84375 C 4.867188 -5.039062 5.070312 -5.191406 5.3125 -5.296875 C 5.5625 -5.410156 5.832031 -5.46875 6.125 -5.46875 C 6.4375 -5.46875 6.722656 -5.394531 6.984375 -5.25 C 7.242188 -5.113281 7.445312 -4.90625 7.59375 -4.625 C 7.738281 -4.34375 7.8125 -4 7.8125 -3.59375 L 7.8125 0 L 7.15625 0 L 7.15625 -3.578125 C 7.15625 -4.015625 7.035156 -4.335938 6.796875 -4.546875 C 6.566406 -4.753906 6.285156 -4.859375 5.953125 -4.859375 C 5.691406 -4.859375 5.457031 -4.800781 5.25 -4.6875 C 5.050781 -4.582031 4.894531 -4.425781 4.78125 -4.21875 C 4.675781 -4.019531 4.625 -3.785156 4.625 -3.515625 L 4.625 0 L 3.96875 0 L 3.96875 -3.640625 C 3.96875 -4.015625 3.859375 -4.3125 3.640625 -4.53125 C 3.421875 -4.75 3.140625 -4.859375 2.796875 -4.859375 C 2.546875 -4.859375 2.316406 -4.800781 2.109375 -4.6875 C 1.910156 -4.582031 1.75 -4.421875 1.625 -4.203125 C 1.5 -3.992188 1.4375 -3.738281 1.4375 -3.4375 L 1.4375 0 Z M 0.78125 0 "/></g></g></g><g fill="#c9b7a6" fill-opacity="1"><g transform="translate(164.086349, 104.662671)"><g><path d="M 2.234375 0.109375 C 1.910156 0.109375 1.613281 0.046875 1.34375 -0.078125 C 1.070312 -0.203125 0.851562 -0.382812 0.6875 -0.625 C 0.53125 -0.863281 0.453125 -1.15625 0.453125 -1.5 C 0.453125 -1.769531 0.5 -1.992188 0.59375 -2.171875 C 0.695312 -2.359375 0.84375 -2.507812 1.03125 -2.625 C 1.21875 -2.738281 1.4375 -2.828125 1.6875 -2.890625 C 1.945312 -2.960938 2.234375 -3.019531 2.546875 -3.0625 C 2.847656 -3.101562 3.101562 -3.132812 3.3125 -3.15625 C 3.519531 -3.1875 3.675781 -3.234375 3.78125 -3.296875 C 3.894531 -3.359375 3.953125 -3.457031 3.953125 -3.59375 L 3.953125 -3.703125 C 3.953125 -3.941406 3.898438 -4.144531 3.796875 -4.3125 C 3.691406 -4.488281 3.546875 -4.625 3.359375 -4.71875 C 3.171875 -4.820312 2.941406 -4.875 2.671875 -4.875 C 2.410156 -4.875 2.179688 -4.832031 1.984375 -4.75 C 1.785156 -4.664062 1.625 -4.554688 1.5 -4.421875 C 1.375 -4.285156 1.285156 -4.132812 1.234375 -3.96875 L 0.59375 -4.125 C 0.6875 -4.425781 0.835938 -4.675781 1.046875 -4.875 C 1.253906 -5.070312 1.5 -5.21875 1.78125 -5.3125 C 2.0625 -5.40625 2.351562 -5.453125 2.65625 -5.453125 C 2.882812 -5.453125 3.113281 -5.421875 3.34375 -5.359375 C 3.570312 -5.296875 3.78125 -5.195312 3.96875 -5.0625 C 4.15625 -4.925781 4.304688 -4.742188 4.421875 -4.515625 C 4.535156 -4.285156 4.59375 -4.003906 4.59375 -3.671875 L 4.59375 0 L 3.953125 0 L 3.953125 -0.859375 L 3.90625 -0.859375 C 3.832031 -0.691406 3.722656 -0.535156 3.578125 -0.390625 C 3.429688 -0.242188 3.242188 -0.125 3.015625 -0.03125 C 2.796875 0.0625 2.535156 0.109375 2.234375 0.109375 Z M 2.328125 -0.46875 C 2.660156 -0.46875 2.945312 -0.539062 3.1875 -0.6875 C 3.4375 -0.832031 3.625 -1.023438 3.75 -1.265625 C 3.882812 -1.503906 3.953125 -1.769531 3.953125 -2.0625 L 3.953125 -2.828125 C 3.898438 -2.785156 3.820312 -2.742188 3.71875 -2.703125 C 3.613281 -2.671875 3.492188 -2.640625 3.359375 -2.609375 C 3.222656 -2.585938 3.082031 -2.566406 2.9375 -2.546875 C 2.789062 -2.523438 2.65625 -2.507812 2.53125 -2.5 C 2.238281 -2.457031 1.984375 -2.394531 1.765625 -2.3125 C 1.554688 -2.238281 1.394531 -2.132812 1.28125 -2 C 1.164062 -1.863281 1.109375 -1.6875 1.109375 -1.46875 C 1.109375 -1.257812 1.160156 -1.078125 1.265625 -0.921875 C 1.367188 -0.773438 1.515625 -0.660156 1.703125 -0.578125 C 1.890625 -0.503906 2.097656 -0.46875 2.328125 -0.46875 Z M 2.328125 -0.46875 "/></g></g></g><g fill="#c9b7a6" fill-opacity="1"><g transform="translate(169.477292, 104.662671)"><g><path d="M 2.890625 0.109375 C 2.421875 0.109375 2.003906 -0.0078125 1.640625 -0.25 C 1.285156 -0.488281 1.003906 -0.816406 0.796875 -1.234375 C 0.597656 -1.648438 0.5 -2.128906 0.5 -2.671875 C 0.5 -3.210938 0.597656 -3.691406 0.796875 -4.109375 C 1.003906 -4.535156 1.285156 -4.863281 1.640625 -5.09375 C 2.003906 -5.332031 2.421875 -5.453125 2.890625 -5.453125 C 3.171875 -5.453125 3.425781 -5.410156 3.65625 -5.328125 C 3.882812 -5.242188 4.085938 -5.132812 4.265625 -5 C 4.453125 -4.863281 4.601562 -4.707031 4.71875 -4.53125 C 4.84375 -4.351562 4.929688 -4.171875 4.984375 -3.984375 L 4.359375 -3.828125 C 4.328125 -3.941406 4.269531 -4.0625 4.1875 -4.1875 C 4.101562 -4.3125 4 -4.421875 3.875 -4.515625 C 3.757812 -4.617188 3.617188 -4.703125 3.453125 -4.765625 C 3.285156 -4.828125 3.097656 -4.859375 2.890625 -4.859375 C 2.523438 -4.859375 2.210938 -4.757812 1.953125 -4.5625 C 1.703125 -4.375 1.503906 -4.113281 1.359375 -3.78125 C 1.222656 -3.445312 1.15625 -3.078125 1.15625 -2.671875 C 1.15625 -2.265625 1.222656 -1.894531 1.359375 -1.5625 C 1.503906 -1.238281 1.703125 -0.976562 1.953125 -0.78125 C 2.210938 -0.582031 2.523438 -0.484375 2.890625 -0.484375 C 3.097656 -0.484375 3.285156 -0.515625 3.453125 -0.578125 C 3.628906 -0.640625 3.773438 -0.722656 3.890625 -0.828125 C 4.015625 -0.929688 4.117188 -1.046875 4.203125 -1.171875 C 4.285156 -1.296875 4.34375 -1.421875 4.375 -1.546875 L 5 -1.390625 C 4.945312 -1.203125 4.859375 -1.019531 4.734375 -0.84375 C 4.617188 -0.664062 4.46875 -0.503906 4.28125 -0.359375 C 4.101562 -0.210938 3.894531 -0.0976562 3.65625 -0.015625 C 3.425781 0.0664062 3.171875 0.109375 2.890625 0.109375 Z M 2.390625 2.03125 L 2.390625 1.625 L 2.921875 1.625 C 3.109375 1.625 3.242188 1.585938 3.328125 1.515625 C 3.421875 1.453125 3.46875 1.359375 3.46875 1.234375 C 3.46875 1.097656 3.421875 0.992188 3.328125 0.921875 C 3.242188 0.859375 3.109375 0.828125 2.921875 0.828125 L 2.546875 0.828125 L 2.71875 -0.1875 L 3.09375 -0.1875 L 3.09375 0 L 3.046875 0.453125 C 3.347656 0.460938 3.578125 0.53125 3.734375 0.65625 C 3.890625 0.789062 3.96875 0.984375 3.96875 1.234375 C 3.96875 1.492188 3.878906 1.691406 3.703125 1.828125 C 3.523438 1.960938 3.265625 2.03125 2.921875 2.03125 Z M 2.390625 2.03125 "/></g></g></g><g fill="#c9b7a6" fill-opacity="1"><g transform="translate(175.048437, 104.662671)"><g><path d="M 2.234375 0.109375 C 1.910156 0.109375 1.613281 0.046875 1.34375 -0.078125 C 1.070312 -0.203125 0.851562 -0.382812 0.6875 -0.625 C 0.53125 -0.863281 0.453125 -1.15625 0.453125 -1.5 C 0.453125 -1.769531 0.5 -1.992188 0.59375 -2.171875 C 0.695312 -2.359375 0.84375 -2.507812 1.03125 -2.625 C 1.21875 -2.738281 1.4375 -2.828125 1.6875 -2.890625 C 1.945312 -2.960938 2.234375 -3.019531 2.546875 -3.0625 C 2.847656 -3.101562 3.101562 -3.132812 3.3125 -3.15625 C 3.519531 -3.1875 3.675781 -3.234375 3.78125 -3.296875 C 3.894531 -3.359375 3.953125 -3.457031 3.953125 -3.59375 L 3.953125 -3.703125 C 3.953125 -3.941406 3.898438 -4.144531 3.796875 -4.3125 C 3.691406 -4.488281 3.546875 -4.625 3.359375 -4.71875 C 3.171875 -4.820312 2.941406 -4.875 2.671875 -4.875 C 2.410156 -4.875 2.179688 -4.832031 1.984375 -4.75 C 1.785156 -4.664062 1.625 -4.554688 1.5 -4.421875 C 1.375 -4.285156 1.285156 -4.132812 1.234375 -3.96875 L 0.59375 -4.125 C 0.6875 -4.425781 0.835938 -4.675781 1.046875 -4.875 C 1.253906 -5.070312 1.5 -5.21875 1.78125 -5.3125 C 2.0625 -5.40625 2.351562 -5.453125 2.65625 -5.453125 C 2.882812 -5.453125 3.113281 -5.421875 3.34375 -5.359375 C 3.570312 -5.296875 3.78125 -5.195312 3.96875 -5.0625 C 4.15625 -4.925781 4.304688 -4.742188 4.421875 -4.515625 C 4.535156 -4.285156 4.59375 -4.003906 4.59375 -3.671875 L 4.59375 0 L 3.953125 0 L 3.953125 -0.859375 L 3.90625 -0.859375 C 3.832031 -0.691406 3.722656 -0.535156 3.578125 -0.390625 C 3.429688 -0.242188 3.242188 -0.125 3.015625 -0.03125 C 2.796875 0.0625 2.535156 0.109375 2.234375 0.109375 Z M 2.328125 -0.46875 C 2.660156 -0.46875 2.945312 -0.539062 3.1875 -0.6875 C 3.4375 -0.832031 3.625 -1.023438 3.75 -1.265625 C 3.882812 -1.503906 3.953125 -1.769531 3.953125 -2.0625 L 3.953125 -2.828125 C 3.898438 -2.785156 3.820312 -2.742188 3.71875 -2.703125 C 3.613281 -2.671875 3.492188 -2.640625 3.359375 -2.609375 C 3.222656 -2.585938 3.082031 -2.566406 2.9375 -2.546875 C 2.789062 -2.523438 2.65625 -2.507812 2.53125 -2.5 C 2.238281 -2.457031 1.984375 -2.394531 1.765625 -2.3125 C 1.554688 -2.238281 1.394531 -2.132812 1.28125 -2 C 1.164062 -1.863281 1.109375 -1.6875 1.109375 -1.46875 C 1.109375 -1.257812 1.160156 -1.078125 1.265625 -0.921875 C 1.367188 -0.773438 1.515625 -0.660156 1.703125 -0.578125 C 1.890625 -0.503906 2.097656 -0.46875 2.328125 -0.46875 Z M 3.25 -6.375 C 3.125 -6.375 3.003906 -6.394531 2.890625 -6.4375 C 2.785156 -6.488281 2.6875 -6.546875 2.59375 -6.609375 C 2.5 -6.671875 2.40625 -6.722656 2.3125 -6.765625 C 2.226562 -6.816406 2.144531 -6.84375 2.0625 -6.84375 C 1.957031 -6.84375 1.875 -6.796875 1.8125 -6.703125 C 1.75 -6.617188 1.710938 -6.519531 1.703125 -6.40625 L 1.234375 -6.40625 C 1.242188 -6.664062 1.3125 -6.882812 1.4375 -7.0625 C 1.570312 -7.238281 1.757812 -7.328125 2 -7.328125 C 2.132812 -7.328125 2.253906 -7.300781 2.359375 -7.25 C 2.460938 -7.207031 2.5625 -7.15625 2.65625 -7.09375 C 2.75 -7.03125 2.835938 -6.972656 2.921875 -6.921875 C 3.003906 -6.878906 3.09375 -6.859375 3.1875 -6.859375 C 3.28125 -6.859375 3.351562 -6.890625 3.40625 -6.953125 C 3.46875 -7.023438 3.515625 -7.140625 3.546875 -7.296875 L 4.015625 -7.296875 C 3.992188 -7.015625 3.914062 -6.789062 3.78125 -6.625 C 3.644531 -6.457031 3.46875 -6.375 3.25 -6.375 Z M 3.25 -6.375 "/></g></g></g><g fill="#c9b7a6" fill-opacity="1"><g transform="translate(180.43938, 104.662671)"><g><path d="M 2.890625 0.109375 C 2.421875 0.109375 2.003906 -0.00390625 1.640625 -0.234375 C 1.285156 -0.472656 1.003906 -0.800781 0.796875 -1.21875 C 0.597656 -1.632812 0.5 -2.113281 0.5 -2.65625 C 0.5 -3.207031 0.597656 -3.691406 0.796875 -4.109375 C 1.003906 -4.535156 1.285156 -4.863281 1.640625 -5.09375 C 2.003906 -5.332031 2.421875 -5.453125 2.890625 -5.453125 C 3.367188 -5.453125 3.785156 -5.332031 4.140625 -5.09375 C 4.492188 -4.863281 4.769531 -4.535156 4.96875 -4.109375 C 5.175781 -3.691406 5.28125 -3.207031 5.28125 -2.65625 C 5.28125 -2.113281 5.175781 -1.632812 4.96875 -1.21875 C 4.769531 -0.800781 4.492188 -0.472656 4.140625 -0.234375 C 3.785156 -0.00390625 3.367188 0.109375 2.890625 0.109375 Z M 2.890625 -0.484375 C 3.265625 -0.484375 3.578125 -0.578125 3.828125 -0.765625 C 4.085938 -0.960938 4.285156 -1.226562 4.421875 -1.5625 C 4.554688 -1.894531 4.625 -2.257812 4.625 -2.65625 C 4.625 -3.070312 4.554688 -3.445312 4.421875 -3.78125 C 4.285156 -4.113281 4.085938 -4.375 3.828125 -4.5625 C 3.566406 -4.757812 3.253906 -4.859375 2.890625 -4.859375 C 2.523438 -4.859375 2.210938 -4.757812 1.953125 -4.5625 C 1.703125 -4.363281 1.503906 -4.097656 1.359375 -3.765625 C 1.222656 -3.441406 1.15625 -3.070312 1.15625 -2.65625 C 1.15625 -2.25 1.222656 -1.878906 1.359375 -1.546875 C 1.503906 -1.222656 1.703125 -0.960938 1.953125 -0.765625 C 2.210938 -0.578125 2.523438 -0.484375 2.890625 -0.484375 Z M 2.890625 -0.484375 "/></g></g></g><g fill="#6a5547" fill-opacity="1"><g transform="translate(115.339122, 89.247617)"><g><path d="M 31.421875 -26.84375 L 31.421875 -26.078125 C 30.566406 -26.054688 29.914062 -25.960938 29.46875 -25.796875 C 29.03125 -25.628906 28.734375 -25.320312 28.578125 -24.875 C 28.429688 -24.4375 28.359375 -23.75 28.359375 -22.8125 L 28.359375 -4.015625 C 28.359375 -3.109375 28.429688 -2.425781 28.578125 -1.96875 C 28.734375 -1.507812 29.03125 -1.203125 29.46875 -1.046875 C 29.914062 -0.898438 30.566406 -0.804688 31.421875 -0.765625 L 31.421875 0 C 30.835938 -0.0507812 30.109375 -0.0820312 29.234375 -0.09375 C 28.367188 -0.101562 27.492188 -0.109375 26.609375 -0.109375 C 25.617188 -0.109375 24.691406 -0.101562 23.828125 -0.09375 C 22.972656 -0.0820312 22.285156 -0.0507812 21.765625 0 L 21.765625 -0.765625 C 22.617188 -0.804688 23.265625 -0.898438 23.703125 -1.046875 C 24.148438 -1.203125 24.445312 -1.507812 24.59375 -1.96875 C 24.75 -2.425781 24.828125 -3.109375 24.828125 -4.015625 L 24.828125 -24.859375 L 24.984375 -24.75 L 15.6875 0.1875 L 15.09375 0.1875 L 5.53125 -24.40625 L 5.53125 -4.390625 C 5.53125 -3.484375 5.613281 -2.769531 5.78125 -2.25 C 5.945312 -1.738281 6.273438 -1.375 6.765625 -1.15625 C 7.253906 -0.9375 7.992188 -0.804688 8.984375 -0.765625 L 8.984375 0 C 8.523438 -0.0507812 7.929688 -0.0820312 7.203125 -0.09375 C 6.472656 -0.101562 5.78125 -0.109375 5.125 -0.109375 C 4.488281 -0.109375 3.847656 -0.101562 3.203125 -0.09375 C 2.554688 -0.0820312 2.019531 -0.0507812 1.59375 0 L 1.59375 -0.765625 C 2.445312 -0.804688 3.09375 -0.9375 3.53125 -1.15625 C 3.976562 -1.375 4.273438 -1.738281 4.421875 -2.25 C 4.578125 -2.769531 4.65625 -3.484375 4.65625 -4.390625 L 4.65625 -22.8125 C 4.65625 -23.75 4.578125 -24.4375 4.421875 -24.875 C 4.273438 -25.320312 3.976562 -25.628906 3.53125 -25.796875 C 3.09375 -25.960938 2.445312 -26.054688 1.59375 -26.078125 L 1.59375 -26.84375 C 2.019531 -26.8125 2.554688 -26.78125 3.203125 -26.75 C 3.847656 -26.726562 4.488281 -26.71875 5.125 -26.71875 C 5.675781 -26.71875 6.25 -26.726562 6.84375 -26.75 C 7.4375 -26.78125 7.9375 -26.8125 8.34375 -26.84375 L 16.9375 -4.171875 L 16.296875 -3.859375 L 24.828125 -26.71875 C 25.128906 -26.71875 25.425781 -26.71875 25.71875 -26.71875 C 26.007812 -26.71875 26.304688 -26.71875 26.609375 -26.71875 C 27.492188 -26.71875 28.367188 -26.726562 29.234375 -26.75 C 30.109375 -26.78125 30.835938 -26.8125 31.421875 -26.84375 Z M 31.421875 -26.84375 "/></g></g></g><g fill="#6a5547" fill-opacity="1"><g transform="translate(148.165954, 89.247617)"><g><path d="M 6.484375 0.265625 C 5.441406 0.265625 4.539062 0.0703125 3.78125 -0.3125 C 3.03125 -0.707031 2.457031 -1.257812 2.0625 -1.96875 C 1.675781 -2.675781 1.484375 -3.5 1.484375 -4.4375 C 1.484375 -5.550781 1.738281 -6.457031 2.25 -7.15625 C 2.769531 -7.863281 3.429688 -8.429688 4.234375 -8.859375 C 5.046875 -9.296875 5.898438 -9.660156 6.796875 -9.953125 C 7.703125 -10.242188 8.554688 -10.519531 9.359375 -10.78125 C 10.171875 -11.050781 10.832031 -11.363281 11.34375 -11.71875 C 11.863281 -12.070312 12.125 -12.535156 12.125 -13.109375 L 12.125 -15.46875 C 12.125 -16.53125 11.96875 -17.335938 11.65625 -17.890625 C 11.34375 -18.441406 10.921875 -18.8125 10.390625 -19 C 9.859375 -19.195312 9.265625 -19.296875 8.609375 -19.296875 C 7.972656 -19.296875 7.296875 -19.207031 6.578125 -19.03125 C 5.859375 -18.851562 5.285156 -18.484375 4.859375 -17.921875 C 5.335938 -17.828125 5.753906 -17.578125 6.109375 -17.171875 C 6.460938 -16.765625 6.640625 -16.25 6.640625 -15.625 C 6.640625 -14.988281 6.4375 -14.488281 6.03125 -14.125 C 5.625 -13.757812 5.101562 -13.578125 4.46875 -13.578125 C 3.738281 -13.578125 3.203125 -13.804688 2.859375 -14.265625 C 2.515625 -14.734375 2.34375 -15.257812 2.34375 -15.84375 C 2.34375 -16.5 2.503906 -17.03125 2.828125 -17.4375 C 3.160156 -17.84375 3.582031 -18.222656 4.09375 -18.578125 C 4.675781 -18.984375 5.425781 -19.328125 6.34375 -19.609375 C 7.269531 -19.898438 8.3125 -20.046875 9.46875 -20.046875 C 10.507812 -20.046875 11.394531 -19.925781 12.125 -19.6875 C 12.863281 -19.445312 13.472656 -19.101562 13.953125 -18.65625 C 14.609375 -18.039062 15.035156 -17.296875 15.234375 -16.421875 C 15.441406 -15.554688 15.546875 -14.519531 15.546875 -13.3125 L 15.546875 -2.765625 C 15.546875 -2.128906 15.640625 -1.671875 15.828125 -1.390625 C 16.015625 -1.117188 16.3125 -0.984375 16.71875 -0.984375 C 17 -0.984375 17.265625 -1.046875 17.515625 -1.171875 C 17.765625 -1.296875 18.066406 -1.5 18.421875 -1.78125 L 18.84375 -1.140625 C 18.3125 -0.734375 17.804688 -0.394531 17.328125 -0.125 C 16.847656 0.132812 16.203125 0.265625 15.390625 0.265625 C 14.660156 0.265625 14.050781 0.140625 13.5625 -0.109375 C 13.082031 -0.367188 12.722656 -0.742188 12.484375 -1.234375 C 12.242188 -1.722656 12.125 -2.347656 12.125 -3.109375 C 11.445312 -1.972656 10.632812 -1.125 9.6875 -0.5625 C 8.738281 -0.0078125 7.671875 0.265625 6.484375 0.265625 Z M 7.84375 -1.25 C 8.675781 -1.25 9.453125 -1.488281 10.171875 -1.96875 C 10.898438 -2.445312 11.550781 -3.164062 12.125 -4.125 L 12.125 -11.5625 C 11.820312 -11.132812 11.378906 -10.773438 10.796875 -10.484375 C 10.222656 -10.191406 9.59375 -9.898438 8.90625 -9.609375 C 8.226562 -9.316406 7.578125 -8.972656 6.953125 -8.578125 C 6.335938 -8.191406 5.828125 -7.679688 5.421875 -7.046875 C 5.015625 -6.421875 4.8125 -5.601562 4.8125 -4.59375 C 4.8125 -3.582031 5.082031 -2.769531 5.625 -2.15625 C 6.164062 -1.550781 6.90625 -1.25 7.84375 -1.25 Z M 6.515625 -29.109375 C 7.203125 -29.109375 7.785156 -28.984375 8.265625 -28.734375 C 8.742188 -28.484375 9.175781 -28.191406 9.5625 -27.859375 C 9.957031 -27.535156 10.363281 -27.242188 10.78125 -26.984375 C 11.195312 -26.734375 11.6875 -26.609375 12.25 -26.609375 C 12.78125 -26.609375 13.289062 -26.765625 13.78125 -27.078125 C 14.269531 -27.398438 14.726562 -27.914062 15.15625 -28.625 L 15.6875 -28.359375 C 15.289062 -26.960938 14.6875 -25.960938 13.875 -25.359375 C 13.0625 -24.753906 12.175781 -24.453125 11.21875 -24.453125 C 10.539062 -24.453125 9.953125 -24.578125 9.453125 -24.828125 C 8.960938 -25.078125 8.519531 -25.375 8.125 -25.71875 C 7.738281 -26.0625 7.335938 -26.359375 6.921875 -26.609375 C 6.503906 -26.859375 6.015625 -26.984375 5.453125 -26.984375 C 4.921875 -26.984375 4.410156 -26.828125 3.921875 -26.515625 C 3.429688 -26.203125 2.972656 -25.675781 2.546875 -24.9375 L 2.015625 -25.203125 C 2.410156 -26.617188 3.019531 -27.625 3.84375 -28.21875 C 4.664062 -28.8125 5.554688 -29.109375 6.515625 -29.109375 Z M 6.515625 -29.109375 "/></g></g></g><g fill="#6a5547" fill-opacity="1"><g transform="translate(167.043286, 89.247617)"><g><path d="M 10.3125 -20.046875 C 12.53125 -20.046875 14.265625 -19.367188 15.515625 -18.015625 C 16.773438 -16.671875 17.40625 -14.570312 17.40625 -11.71875 L 4.015625 -11.71875 L 3.984375 -12.4375 L 13.765625 -12.4375 C 13.804688 -13.675781 13.703125 -14.816406 13.453125 -15.859375 C 13.203125 -16.910156 12.804688 -17.75 12.265625 -18.375 C 11.722656 -19.007812 11.019531 -19.328125 10.15625 -19.328125 C 9 -19.328125 7.96875 -18.742188 7.0625 -17.578125 C 6.164062 -16.421875 5.628906 -14.578125 5.453125 -12.046875 L 5.578125 -11.90625 C 5.523438 -11.519531 5.484375 -11.097656 5.453125 -10.640625 C 5.429688 -10.191406 5.421875 -9.738281 5.421875 -9.28125 C 5.421875 -7.5625 5.695312 -6.082031 6.25 -4.84375 C 6.8125 -3.613281 7.539062 -2.675781 8.4375 -2.03125 C 9.332031 -1.382812 10.257812 -1.0625 11.21875 -1.0625 C 11.976562 -1.0625 12.695312 -1.179688 13.375 -1.421875 C 14.0625 -1.660156 14.691406 -2.054688 15.265625 -2.609375 C 15.847656 -3.171875 16.359375 -3.921875 16.796875 -4.859375 L 17.546875 -4.546875 C 17.273438 -3.710938 16.820312 -2.90625 16.1875 -2.125 C 15.550781 -1.34375 14.753906 -0.703125 13.796875 -0.203125 C 12.835938 0.285156 11.726562 0.53125 10.46875 0.53125 C 8.644531 0.53125 7.082031 0.113281 5.78125 -0.71875 C 4.476562 -1.550781 3.476562 -2.707031 2.78125 -4.1875 C 2.09375 -5.664062 1.75 -7.363281 1.75 -9.28125 C 1.75 -11.507812 2.097656 -13.425781 2.796875 -15.03125 C 3.503906 -16.632812 4.503906 -17.867188 5.796875 -18.734375 C 7.085938 -19.609375 8.59375 -20.046875 10.3125 -20.046875 Z M 10.3125 -20.046875 "/></g></g></g></svg>