<?xml version="1.0" encoding="UTF-8" standalone="no"?>
<!DOCTYPE svg PUBLIC "-//W3C//DTD SVG 1.1//EN" "http://www.w3.org/Graphics/SVG/1.1/DTD/svg11.dtd">
<svg xmlns="http://www.w3.org/2000/svg" version="1.1" viewBox="0.00 0.00 268.00 294.00">
<g stroke-width="2.00" fill="none" stroke-linecap="butt">
<path stroke="#edccc4" vector-effect="non-scaling-stroke" d="
  M 132.14 280.12
  A 0.41 0.41 0.0 0 0 132.61 280.64
  Q 133.18 280.52 133.45 279.94
  C 143.71 258.24 138.31 235.79 122.06 219.19
  C 110.63 207.51 100.88 195.72 97.30 179.80
  C 92.49 158.43 100.58 134.68 114.55 117.82
  Q 121.52 109.41 131.04 102.26
  C 142.02 94.00 150.20 85.68 153.12 72.19
  C 156.38 57.12 152.10 41.18 136.44 36.01
  C 129.27 33.64 120.04 34.95 113.27 37.78
  C 97.99 44.17 86.17 57.80 78.06 72.31
  Q 61.26 102.35 59.55 136.97
  C 58.12 166.17 67.04 196.12 90.37 214.52
  Q 98.62 221.02 109.07 227.03
  C 125.97 236.74 136.48 251.59 133.76 271.79
  Q 133.05 277.10 132.14 280.12"
/>
<path stroke="#e4cfc5" vector-effect="non-scaling-stroke" d="
  M 160.3452 112.8083
  A 4.72 4.51 -74.2 0 0 154.7204 116.1220
  A 4.72 4.51 -74.2 0 0 157.7748 121.8917
  A 4.72 4.51 -74.2 0 0 163.3996 118.5780
  A 4.72 4.51 -74.2 0 0 160.3452 112.8083"
/>
<path stroke="#d0cfc3" vector-effect="non-scaling-stroke" d="
  M 152.49 282.79
  Q 166.50 281.84 179.63 274.51
  Q 206.96 259.23 220.50 229.94
  C 229.00 211.53 232.90 190.94 228.54 171.24
  C 225.42 157.14 216.14 144.17 201.98 140.58
  C 178.13 134.51 158.84 153.75 163.66 177.81
  C 165.42 186.60 171.77 191.82 178.43 198.07
  C 187.77 206.84 189.77 219.23 187.51 232.02
  C 185.52 243.26 180.24 252.60 173.51 261.83
  Q 164.84 273.71 152.20 281.92
  A 0.47 0.47 0.0 0 0 152.49 282.79"
/>
<path stroke="#e0d4ca" vector-effect="non-scaling-stroke" d="
  M 143.68 144.79
  A 4.98 4.98 0.0 0 0 138.70 139.81
  A 4.98 4.98 0.0 0 0 133.72 144.79
  A 4.98 4.98 0.0 0 0 138.70 149.77
  A 4.98 4.98 0.0 0 0 143.68 144.79"
/>
<path stroke="#e9ccc4" vector-effect="non-scaling-stroke" d="
  M 142.49 174.58
  A 5.75 5.75 0.0 0 0 136.74 168.83
  A 5.75 5.75 0.0 0 0 130.99 174.58
  A 5.75 5.75 0.0 0 0 136.74 180.33
  A 5.75 5.75 0.0 0 0 142.49 174.58"
/>
<path stroke="#dad2c6" vector-effect="non-scaling-stroke" d="
  M 160.04 208.24
  A 6.01 6.01 0.0 0 0 154.03 202.23
  A 6.01 6.01 0.0 0 0 148.02 208.24
  A 6.01 6.01 0.0 0 0 154.03 214.25
  A 6.01 6.01 0.0 0 0 160.04 208.24"
/>
<path stroke="#e0d4ca" vector-effect="non-scaling-stroke" d="
  M 166.9437 231.0222
  A 4.59 4.45 -75.7 0 0 161.4979 234.3709
  A 4.59 4.45 -75.7 0 0 164.6763 239.9178
  A 4.59 4.45 -75.7 0 0 170.1221 236.5691
  A 4.59 4.45 -75.7 0 0 166.9437 231.0222"
/>
</g>
<path fill="#fdf7f4" d="
  M 132.14 280.12
  A 0.41 0.41 0.0 0 0 132.61 280.64
  Q 133.18 280.52 133.45 279.94
  C 143.71 258.24 138.31 235.79 122.06 219.19
  C 110.63 207.51 100.88 195.72 97.30 179.80
  C 92.49 158.43 100.58 134.68 114.55 117.82
  Q 121.52 109.41 131.04 102.26
  C 142.02 94.00 150.20 85.68 153.12 72.19
  C 156.38 57.12 152.10 41.18 136.44 36.01
  C 129.27 33.64 120.04 34.95 113.27 37.78
  C 97.99 44.17 86.17 57.80 78.06 72.31
  Q 61.26 102.35 59.55 136.97
  C 58.12 166.17 67.04 196.12 90.37 214.52
  Q 98.62 221.02 109.07 227.03
  C 125.97 236.74 136.48 251.59 133.76 271.79
  Q 133.05 277.10 132.14 280.12
  Z
  M 160.3452 112.8083
  A 4.72 4.51 -74.2 0 0 154.7204 116.1220
  A 4.72 4.51 -74.2 0 0 157.7748 121.8917
  A 4.72 4.51 -74.2 0 0 163.3996 118.5780
  A 4.72 4.51 -74.2 0 0 160.3452 112.8083
  Z
  M 152.49 282.79
  Q 166.50 281.84 179.63 274.51
  Q 206.96 259.23 220.50 229.94
  C 229.00 211.53 232.90 190.94 228.54 171.24
  C 225.42 157.14 216.14 144.17 201.98 140.58
  C 178.13 134.51 158.84 153.75 163.66 177.81
  C 165.42 186.60 171.77 191.82 178.43 198.07
  C 187.77 206.84 189.77 219.23 187.51 232.02
  C 185.52 243.26 180.24 252.60 173.51 261.83
  Q 164.84 273.71 152.20 281.92
  A 0.47 0.47 0.0 0 0 152.49 282.79
  Z
  M 143.68 144.79
  A 4.98 4.98 0.0 0 0 138.70 139.81
  A 4.98 4.98 0.0 0 0 133.72 144.79
  A 4.98 4.98 0.0 0 0 138.70 149.77
  A 4.98 4.98 0.0 0 0 143.68 144.79
  Z
  M 142.49 174.58
  A 5.75 5.75 0.0 0 0 136.74 168.83
  A 5.75 5.75 0.0 0 0 130.99 174.58
  A 5.75 5.75 0.0 0 0 136.74 180.33
  A 5.75 5.75 0.0 0 0 142.49 174.58
  Z
  M 160.04 208.24
  A 6.01 6.01 0.0 0 0 154.03 202.23
  A 6.01 6.01 0.0 0 0 148.02 208.24
  A 6.01 6.01 0.0 0 0 154.03 214.25
  A 6.01 6.01 0.0 0 0 160.04 208.24
  Z
  M 166.9437 231.0222
  A 4.59 4.45 -75.7 0 0 161.4979 234.3709
  A 4.59 4.45 -75.7 0 0 164.6763 239.9178
  A 4.59 4.45 -75.7 0 0 170.1221 236.5691
  A 4.59 4.45 -75.7 0 0 166.9437 231.0222
  Z"
/>
<path fill="#dca193" d="
  M 132.14 280.12
  Q 133.05 277.10 133.76 271.79
  C 136.48 251.59 125.97 236.74 109.07 227.03
  Q 98.62 221.02 90.37 214.52
  C 67.04 196.12 58.12 166.17 59.55 136.97
  Q 61.26 102.35 78.06 72.31
  C 86.17 57.80 97.99 44.17 113.27 37.78
  C 120.04 34.95 129.27 33.64 136.44 36.01
  C 152.10 41.18 156.38 57.12 153.12 72.19
  C 150.20 85.68 142.02 94.00 131.04 102.26
  Q 121.52 109.41 114.55 117.82
  C 100.58 134.68 92.49 158.43 97.30 179.80
  C 100.88 195.72 110.63 207.51 122.06 219.19
  C 138.31 235.79 143.71 258.24 133.45 279.94
  Q 133.18 280.52 132.61 280.64
  A 0.41 0.41 0.0 0 1 132.14 280.12
  Z"
/>
<ellipse fill="#caa795" cx="0.00" cy="0.00" transform="translate(159.06,117.35) rotate(-74.2)" rx="4.72" ry="4.51"/>
<path fill="#a2a691" d="
  M 152.49 282.79
  A 0.47 0.47 0.0 0 1 152.20 281.92
  Q 164.84 273.71 173.51 261.83
  C 180.24 252.60 185.52 243.26 187.51 232.02
  C 189.77 219.23 187.77 206.84 178.43 198.07
  C 171.77 191.82 165.42 186.60 163.66 177.81
  C 158.84 153.75 178.13 134.51 201.98 140.58
  C 216.14 144.17 225.42 157.14 228.54 171.24
  C 232.90 190.94 229.00 211.53 220.50 229.94
  Q 206.96 259.23 179.63 274.51
  Q 166.50 281.84 152.49 282.79
  Z"
/>
<circle fill="#c2b09f" cx="138.70" cy="144.79" r="4.98"/>
<circle fill="#d4a093" cx="136.74" cy="174.58" r="5.75"/>
<circle fill="#b7ac98" cx="154.03" cy="208.24" r="6.01"/>
<ellipse fill="#c2b09f" cx="0.00" cy="0.00" transform="translate(165.81,235.47) rotate(-75.7)" rx="4.59" ry="4.45"/>
</svg>
