<svg xmlns="http://www.w3.org/2000/svg" viewBox="0 0 800 600" width="800" height="600">
  <title>GABAIA — Receptor GABA-A 3D ilustrado (asset de marketing)</title>
  <desc>Ilustração com sensação 3D do receptor GABA-A: 5 subunidades com volume, canal central como poro profundo, moléculas GABA se aproximando, íons Cl⁻ no canal. Pra hero da landing, slides de pitch, posts educativos. NÃO É O LOGO — é asset narrativo.</desc>

  <defs>
    <radialGradient id="grad-alpha" cx="0.4" cy="0.3" r="0.85"><stop offset="0%" stop-color="#F0CCC4"/><stop offset="55%" stop-color="#D8A7A1"/><stop offset="100%" stop-color="#A87A75"/></radialGradient>
    <radialGradient id="grad-beta" cx="0.4" cy="0.3" r="0.85"><stop offset="0%" stop-color="#CCD5C4"/><stop offset="55%" stop-color="#A8B5A2"/><stop offset="100%" stop-color="#7B8A75"/></radialGradient>
    <radialGradient id="grad-gamma" cx="0.4" cy="0.3" r="0.85"><stop offset="0%" stop-color="#E5D6C6"/><stop offset="55%" stop-color="#C9B7A6"/><stop offset="100%" stop-color="#937F6E"/></radialGradient>
    <radialGradient id="grad-pore" cx="0.5" cy="0.5" r="0.8"><stop offset="0%" stop-color="#3A2D24"/><stop offset="60%" stop-color="#5A4538"/><stop offset="100%" stop-color="#8B7565"/></radialGradient>
    <radialGradient id="grad-halo" cx="0.5" cy="0.5" r="0.6"><stop offset="0%" stop-color="#EFE7DD" stop-opacity="0"/><stop offset="70%" stop-color="#EFE7DD" stop-opacity="0"/><stop offset="90%" stop-color="#D8C9B2" stop-opacity="0.35"/><stop offset="100%" stop-color="#C9B7A6" stop-opacity="0"/></radialGradient>
    <radialGradient id="grad-cl" cx="0.35" cy="0.3" r="0.8"><stop offset="0%" stop-color="#E0D3C5"/><stop offset="60%" stop-color="#8B7565"/><stop offset="100%" stop-color="#4B3A2E"/></radialGradient>
  </defs>

  <circle cx="400" cy="300" r="280" fill="url(#grad-halo)"/>

  <g transform="translate(400,300)">
    <circle cx="0" cy="0" r="190" fill="none" stroke="#C9B7A6" stroke-width="0.8" opacity="0.4" stroke-dasharray="1,4"/>
    <circle cx="0" cy="0" r="175" fill="none" stroke="#C9B7A6" stroke-width="0.6" opacity="0.3"/>

    <path d="M -91.4,-131.2 A 160,160 0 0 1 91.4,-131.2 L 27.4,-39.4 A 48,48 0 0 0 -27.4,-39.4 Z" fill="url(#grad-gamma)"/>
    <g transform="rotate(72)"><path d="M -91.4,-131.2 A 160,160 0 0 1 91.4,-131.2 L 27.4,-39.4 A 48,48 0 0 0 -27.4,-39.4 Z" fill="url(#grad-alpha)"/></g>
    <g transform="rotate(144)"><path d="M -91.4,-131.2 A 160,160 0 0 1 91.4,-131.2 L 27.4,-39.4 A 48,48 0 0 0 -27.4,-39.4 Z" fill="url(#grad-beta)"/></g>
    <g transform="rotate(216)"><path d="M -91.4,-131.2 A 160,160 0 0 1 91.4,-131.2 L 27.4,-39.4 A 48,48 0 0 0 -27.4,-39.4 Z" fill="url(#grad-alpha)"/></g>
    <g transform="rotate(288)"><path d="M -91.4,-131.2 A 160,160 0 0 1 91.4,-131.2 L 27.4,-39.4 A 48,48 0 0 0 -27.4,-39.4 Z" fill="url(#grad-beta)"/></g>

    <line x1="0" y1="-39" x2="0" y2="-160" stroke="#EFE7DD" stroke-width="2" transform="rotate(36)" opacity="0.85"/>
    <line x1="0" y1="-39" x2="0" y2="-160" stroke="#EFE7DD" stroke-width="2" transform="rotate(108)" opacity="0.85"/>
    <line x1="0" y1="-39" x2="0" y2="-160" stroke="#EFE7DD" stroke-width="2" transform="rotate(180)" opacity="0.85"/>
    <line x1="0" y1="-39" x2="0" y2="-160" stroke="#EFE7DD" stroke-width="2" transform="rotate(252)" opacity="0.85"/>
    <line x1="0" y1="-39" x2="0" y2="-160" stroke="#EFE7DD" stroke-width="2" transform="rotate(324)" opacity="0.85"/>

    <g transform="rotate(108)"><circle cx="0" cy="-160" r="10" fill="#EFE7DD"/><circle cx="0" cy="-160" r="6" fill="#5A4538"/></g>
    <g transform="rotate(252)"><circle cx="0" cy="-160" r="10" fill="#EFE7DD"/><circle cx="0" cy="-160" r="6" fill="#5A4538"/></g>

    <circle cx="0" cy="0" r="48" fill="url(#grad-pore)"/>
    <ellipse cx="0" cy="-30" rx="35" ry="12" fill="#EFE7DD" opacity="0.25"/>
    <circle cx="0" cy="0" r="13" fill="url(#grad-cl)"/>
    <circle cx="-3" cy="-3" r="3" fill="#EFE7DD" opacity="0.7"/>
  </g>

  <g transform="translate(170,225) scale(0.5)">
    <path d="M 36,128 Q 100,52 164,128" stroke="#C9B7A6" stroke-width="6" fill="none" stroke-linecap="round" opacity="0.85"/>
    <circle cx="36" cy="128" r="14" fill="#D8A7A1"/>
    <circle cx="68" cy="84" r="9" fill="#A8B5A2"/>
    <circle cx="100" cy="68" r="9" fill="#A8B5A2"/>
    <circle cx="132" cy="84" r="9" fill="#A8B5A2"/>
    <circle cx="164" cy="128" r="14" fill="#D8A7A1"/>
  </g>

  <g transform="translate(530,225) scale(0.5)">
    <path d="M 36,128 Q 100,52 164,128" stroke="#C9B7A6" stroke-width="6" fill="none" stroke-linecap="round" opacity="0.85"/>
    <circle cx="36" cy="128" r="14" fill="#D8A7A1"/>
    <circle cx="68" cy="84" r="9" fill="#A8B5A2"/>
    <circle cx="100" cy="68" r="9" fill="#A8B5A2"/>
    <circle cx="132" cy="84" r="9" fill="#A8B5A2"/>
    <circle cx="164" cy="128" r="14" fill="#D8A7A1"/>
  </g>

  <circle cx="400" cy="120" r="9" fill="url(#grad-cl)" opacity="0.85"/>
  <circle cx="400" cy="80" r="7" fill="url(#grad-cl)" opacity="0.6"/>
  <circle cx="400" cy="48" r="5" fill="url(#grad-cl)" opacity="0.4"/>

  <g opacity="0.5">
    <circle cx="100" cy="120" r="3" fill="#A8B5A2"/>
    <circle cx="80" cy="380" r="2.5" fill="#A8B5A2"/>
    <circle cx="700" cy="170" r="3" fill="#A8B5A2"/>
    <circle cx="720" cy="350" r="2.5" fill="#A8B5A2"/>
    <circle cx="160" cy="490" r="2" fill="#A8B5A2"/>
    <circle cx="640" cy="490" r="2" fill="#A8B5A2"/>
    <circle cx="400" cy="540" r="3" fill="#A8B5A2"/>
  </g>
</svg>
